<?xml version="1.0" encoding="UTF-8"?>
<svg id="Layer_1" xmlns="http://www.w3.org/2000/svg" xmlns:xlink="http://www.w3.org/1999/xlink" version="1.1" viewBox="0 0 500 500">
  <!-- Generator: Adobe Illustrator 29.3.1, SVG Export Plug-In . SVG Version: 2.1.0 Build 151)  -->
  <defs>
    <linearGradient id="linear-gradient" x1="-658.63" y1="915.24" x2="-648.67" y2="949.44" gradientTransform="translate(896.75 1168.5) scale(1 -1)" gradientUnits="userSpaceOnUse">
      <stop offset=".02" stop-color="#f5895c"/>
      <stop offset=".97" stop-color="#f8a678"/>
    </linearGradient>
    <radialGradient id="radial-gradient" cx="-645.83" cy="859.92" fx="-645.83" fy="859.92" r="15.49" gradientTransform="translate(1064.4 1201.78) scale(1.18 -1.18)" gradientUnits="userSpaceOnUse">
      <stop offset=".02" stop-color="#f5895c"/>
      <stop offset=".97" stop-color="#f8a678"/>
    </radialGradient>
    <radialGradient id="radial-gradient1" cx="-621.8" cy="873.06" fx="-621.8" fy="873.06" r="23.17" gradientTransform="translate(864.3 1066.5) scale(1 -1)" xlink:href="#radial-gradient"/>
    <mask id="mask" x="186.64" y="45.39" width="166.73" height="101.99" maskUnits="userSpaceOnUse">
      <g id="Mask_Mask_3">
        <g id="Mask_Symbol_9_0_3_MASK_0_FILL">
          <path d="M300.35,53.69c-7.71-2.55-15.7-4.28-23.98-5.18-7.1-.76-13.31-.82-18.63-.17-10.74,1.33-20.91,4.05-30.52,8.16-9.74,4.19-18.67,9.71-26.79,16.56-1.84,1.56-3.54,3.24-5.09,5.05h0c-2.17,2.6-4.32,5.76-6.46,9.48,2.71,1.65,4.47,6.55,5.3,14.7.97,3.78,2.25,7.01,3.85,9.69.25-.5.52-.99.83-1.49,1.99-3.67,3.53-5.8,4.64-6.38-.08.17-.15.33-.21.5-.08.11-.15.23-.21.37-.25.5-.47.99-.66,1.49-1.46,3.12-2.69,6.02-3.69,8.7-2.82,7.56-3.85,13.44-3.11,17.64.94,5.08,3.75,8.63,8.45,10.64,4.67,1.96,9.76,1.93,15.28-.08,3.01-1.1,5.89-2.84,8.65-5.22,2.6-2.19,4.81-4.67,6.63-7.45.15-.21.28-.41.41-.62l.33.21.7-.41c.15.25.31.5.46.75l.04-.17c.22.08.44.16.66.25,2.06.68,4.58.93,7.54.75h0c.83-.03,2.29-.39,4.39-1.08,1.99-.69,3.02-1.05,3.11-1.08,2.54,1.71,5.66,3.23,9.36,4.55,7.4,2.62,13.97,2.93,19.71.91,2.15-.75,4.4-2.35,6.75-4.8l-.04-.08,1.12-1.08h.08c.22-.14.44-.19.66-.17l1.86.17-.25.46c3.98,1.5,7.78,2.68,11.39,3.52,4.51,1.05,8.72,1.56,12.63,1.53,3.98-.03,8.46-.77,13.46-2.24,4.94-1.46,8.57-3.11,10.89-4.93,2.68-2.1,4.96-4.76,6.83-7.99,2.24-3.89,3.4-7.87,3.48-11.93.14-6.27-2.15-13.4-6.87-21.41-8.68-14.81-23.01-25.52-42.98-32.13M276.62,46.03h0c-7.31-.79-13.7-.84-19.17-.17-10.99,1.37-21.39,4.16-31.22,8.36-9.97,4.28-19.11,9.93-27.41,16.94-1.94,1.65-3.74,3.43-5.38,5.34v.04c-2.28,2.72-4.54,6.03-6.79,9.94l2.15,1.24s.05-.08.08-.12c2.14-3.72,4.29-6.88,6.46-9.48h0c1.56-1.81,3.25-3.5,5.09-5.05,8.12-6.85,17.05-12.37,26.79-16.56,9.61-4.11,19.78-6.82,30.52-8.16,5.32-.65,11.53-.59,18.63.17,8.27.9,16.26,2.62,23.98,5.18,19.98,6.61,34.3,17.32,42.98,32.13,4.72,8.01,7.01,15.14,6.87,21.41-.08,4.06-1.24,8.03-3.48,11.93-1.88,3.23-4.15,5.89-6.83,7.99-2.32,1.82-5.95,3.46-10.89,4.93-5,1.46-9.48,2.21-13.46,2.24-3.91.03-8.12-.48-12.63-1.53-3.61-.84-7.41-2.02-11.39-3.52l.25-.46-1.86-.17c-.22-.03-.44.03-.66.17h-.08l-1.12,1.08.04.08c-2.35,2.46-4.6,4.06-6.75,4.8-5.74,2.02-12.31,1.71-19.71-.91-3.7-1.33-6.82-2.84-9.36-4.55-.08.03-1.12.39-3.11,1.08-2.1.69-3.56,1.05-4.39,1.08h0c-2.96.18-5.47-.07-7.54-.75-.22-.09-.44-.17-.66-.25l-.04.17c-.15-.25-.3-.49-.46-.75l-.7.41-.33-.21c-.13.21-.27.41-.41.62-1.82,2.78-4.03,5.27-6.63,7.45-2.76,2.37-5.65,4.11-8.65,5.22-5.52,2.02-10.61,2.04-15.28.08-4.69-2.02-7.51-5.56-8.45-10.64-.75-4.2.29-10.08,3.11-17.64.99-2.68,2.22-5.58,3.69-8.7.19-.5.41-.99.66-1.49.06-.14.12-.26.21-.37.06-.17.12-.33.21-.5-1.1.58-2.65,2.71-4.64,6.38-.3.5-.58.99-.83,1.49-4.42,8.03-6.03,15.13-4.84,21.28,1.08,5.94,4.38,10.09,9.9,12.46h.04c5.19,2.21,10.88,2.19,17.06-.04h.04c3.26-1.19,6.39-3.05,9.4-5.59,1.82-1.52,4-4.09,6.54-7.7l.21.08h.08l.04.04c3.31,1.08,6.11,1.55,8.41,1.41,1.24-.06,2.84-.48,4.8-1.28l2.57-1.2c2.9,1.9,6.32,3.55,10.27,4.93,7.87,2.82,14.47,3.04,19.79.66,2.13-.91,4.75-3.04,7.87-6.38,1.44.55,3.51,1.37,6.21,2.44,2.35.91,4.32,1.55,5.92,1.9,5.16,1.21,9.57,1.81,13.21,1.78,4.06-.03,8.75-.84,14.08-2.44,5.11-1.55,8.94-3.23,11.51-5.05,3.01-2.15,5.76-5.4,8.24-9.73,2.57-4.5,3.89-8.59,3.98-12.26.22-7.23-2.07-14.95-6.87-23.15-4.42-7.59-10.52-14.22-18.3-19.88-7.56-5.49-16.56-9.97-27-13.42-6.46-2.15-14.64-3.77-24.56-4.84Z" fill="#fff"/>
        </g>
      </g>
    </mask>
    <filter id="luminosity-noclip" x="180.44" y="175.67" width="25.84" height="20.61" color-interpolation-filters="sRGB" filterUnits="userSpaceOnUse">
      <feFlood flood-color="#fff" result="bg"/>
      <feBlend in="SourceGraphic" in2="bg"/>
    </filter>
    <filter id="luminosity-noclip1" x="180.44" y="-8442" width="25.84" height="32766" color-interpolation-filters="sRGB" filterUnits="userSpaceOnUse">
      <feFlood flood-color="#fff" result="bg"/>
      <feBlend in="SourceGraphic" in2="bg"/>
    </filter>
    <mask id="mask-2" x="180.44" y="-8442" width="25.84" height="32766" maskUnits="userSpaceOnUse"/>
    <radialGradient id="radial-gradient2" cx="-634.04" cy="845.94" fx="-634.04" fy="845.94" r="10.86" gradientTransform="translate(1020.1 1429.24) scale(1.3 -1.47)" gradientUnits="userSpaceOnUse">
      <stop offset=".02" stop-color="#fff"/>
      <stop offset="1" stop-color="#000"/>
    </radialGradient>
    <mask id="mask-1" x="180.44" y="175.67" width="25.84" height="20.61" maskUnits="userSpaceOnUse">
      <g filter="url(#luminosity-noclip)">
        <g mask="url(#mask-2)">
          <path d="M203.79,190.48c2.09-2.47,2.86-5.05,2.32-7.73-.58-2.72-2.29-4.73-5.13-6.03-2.92-1.22-6.12-1.38-9.61-.49-3.53.93-6.37,2.66-8.53,5.17-2.05,2.56-2.79,5.17-2.21,7.85.5,2.72,2.18,4.71,5.02,5.96,2.92,1.22,6.14,1.38,9.67.49,3.49-.93,6.32-2.68,8.48-5.23Z" fill="url(#radial-gradient2)" mix-blend-mode="multiply"/>
        </g>
      </g>
    </mask>
    <radialGradient id="radial-gradient3" cx="-634.04" cy="845.94" fx="-634.04" fy="845.94" r="10.86" gradientTransform="translate(1020.1 1429.24) scale(1.3 -1.47)" gradientUnits="userSpaceOnUse">
      <stop offset=".02" stop-color="#f5895c"/>
      <stop offset="1" stop-color="#f8a678"/>
    </radialGradient>
    <radialGradient id="radial-gradient4" cx="-622.78" cy="872.26" fx="-622.78" fy="872.26" r="16.11" gradientTransform="translate(870 1061.85) scale(1 -1)" xlink:href="#radial-gradient"/>
    <mask id="mask-3" x="280.43" y="173.41" width="23.72" height="17.38" maskUnits="userSpaceOnUse">
      <g id="Mask_Mask_6">
        <g id="Mask_Symbol_15_0_2_MASK_0_FILL">
          <path d="M297.45,181.89c.22-2.07-.66-3.35-2.65-3.85-2.51-.61-6.71-.62-12.59-.04v-.17l-1.12,9.77c5.22,1.52,9.33,1.53,12.34.04,2.4-1.33,3.74-3.24,4.02-5.76Z" fill="#fff"/>
          <path d="M299.94,182.14c.39-3.48-1.12-5.65-4.51-6.5-2.76-.72-7.22-.03-13.38,2.07l.17.12v.17c5.88-.58,10.08-.57,12.59.04,1.99.5,2.87,1.78,2.65,3.85-.28,2.51-1.61,4.43-4.02,5.76-3.01,1.49-7.12,1.48-12.34-.04-.06,0-.11-.01-.17-.04l-.5-.04v.04c6.07,3.31,10.79,4.07,14.16,2.28,3.2-1.74,4.98-4.29,5.34-7.66v-.04Z" fill="#fff"/>
        </g>
      </g>
    </mask>
    <filter id="luminosity-noclip2" x="282.97" y="173.41" width="21.18" height="14.99" color-interpolation-filters="sRGB" filterUnits="userSpaceOnUse">
      <feFlood flood-color="#fff" result="bg"/>
      <feBlend in="SourceGraphic" in2="bg"/>
    </filter>
    <filter id="luminosity-noclip3" x="282.97" y="-8442" width="21.18" height="32766" color-interpolation-filters="sRGB" filterUnits="userSpaceOnUse">
      <feFlood flood-color="#fff" result="bg"/>
      <feBlend in="SourceGraphic" in2="bg"/>
    </filter>
    <mask id="mask-5" x="282.97" y="-8442" width="21.18" height="32766" maskUnits="userSpaceOnUse"/>
    <radialGradient id="radial-gradient5" cx="-637.37" cy="865.28" fx="-637.37" fy="865.28" r="10.86" gradientTransform="translate(974.81 1105.8) scale(1.07 -1.07)" xlink:href="#radial-gradient2"/>
    <mask id="mask-4" x="282.97" y="173.41" width="21.18" height="14.99" maskUnits="userSpaceOnUse">
      <g filter="url(#luminosity-noclip2)">
        <g mask="url(#mask-5)">
          <path d="M304.02,178.55c-.47-1.98-1.87-3.44-4.2-4.38-2.39-.89-5.02-1-7.88-.35-2.89.68-5.22,1.93-6.99,3.76-1.68,1.86-2.29,3.76-1.81,5.71.41,1.98,1.79,3.42,4.12,4.34,2.39.89,5.03,1,7.92.35,2.86-.68,5.18-1.95,6.95-3.81,1.71-1.8,2.35-3.67,1.9-5.62Z" fill="url(#radial-gradient5)" mix-blend-mode="multiply"/>
        </g>
      </g>
    </mask>
    <radialGradient id="radial-gradient6" cx="-637.37" cy="865.28" fx="-637.37" fy="865.28" r="10.86" gradientTransform="translate(974.81 1105.8) scale(1.07 -1.07)" xlink:href="#radial-gradient3"/>
    <clipPath id="clippath">
      <path d="M264.36,215.49c4.92,1.88,10.05,2.77,15.13,3.07,4.49.26,9.4-.8,13.63-2.96,2.09-1.06,4.14-2.21,6.1-3.71,1.34-1.03,2.34-2.7,3.45-4.11-.08.2-.16.39-.24.59-.62,1.2-1.21,2.56-1.8,3.82-.57,1.04-1.15,2.09-1.74,3.13-1.94,3.04-4.03,5.93-6.03,8.89-1.12,1.67-2.28,3.23-3.46,4.71-6.7,7.16-10.79,10.51-14.53,11.43-5.1,1.25-8.9-.81-13.3-5.22-.88-1.06-2.51-3.33-3.28-4.56-2.99-6.11-6.31-15.08-5.59-22.15.73.79,2.9,2.59,3.7,3.18,2.49,1.84,5.26,2.87,7.95,3.9Z" fill="none"/>
    </clipPath>
  </defs>
  <g>
    <g>
      <g id="Layer2_31_FILL">
        <path d="M262.92,106.69c-15.1-5.08-31.57-10.79-49.4-17.14l-22.15-7.99c-.42.59-.83,1.19-1.24,1.78-4.53,6.74-8.4,15.13-11.59,25.18-2.18,6.76-4.64,16.04-7.37,27.83-1.66,7.04-4.39,18.99-8.2,35.86-9.58-7.07-18.32-8.7-26.21-4.89-6.9,3.31-11.64,9.66-14.2,19.05-2.57,9.28-1.99,17.64,1.74,25.09,4.2,8.42,11.42,12.85,21.66,13.29-4.22,3.45-7.55,6.8-9.98,10.06-2.57,3.42-3.27,5.65-2.11,6.67,1.13.99,3.24.62,6.34-1.12,2.59-1.41,6.11-3.92,10.56-7.54-7.01,10.71-11.54,22.11-13.58,34.2-1.88,11.29-1.45,22.14,1.28,32.55,2.68,10.19,7.23,18.74,13.66,25.67,6.63,7.15,14.48,11.66,23.56,13.54-3.09,3.86-4.65,7.73-4.68,11.59-.06,3.4.95,5.88,3.02,7.45,2.07,1.6,4.21,1.53,6.42-.21,2.54-1.99,4.33-5.77,5.38-11.35,8.28,13.31,19.81,22.33,34.58,27.08,13.89,4.47,31.36,5.37,52.42,2.69,30.95-5.55,51.6-15.85,61.95-30.89,1.3,2.62,2.25,4.36,2.86,5.22,1.74,2.51,3.64,3.99,5.71,4.43,1.33.28,2.66-.14,4.02-1.24,1.38-1.16,2.32-2.72,2.82-4.68,1.33-5.08-.8-10.09-6.38-15.03,8.45-1.63,15.9-5.99,22.36-13.09,6.29-6.96,10.77-15.53,13.42-25.71,2.76-10.63,3.13-21.55,1.12-32.75-2.21-12.26-7.11-23.67-14.7-34.25,4.86,3.84,8.79,6.45,11.8,7.83,2.76,1.27,4.39,1.38,4.89.33.47-1.05-.26-3.01-2.19-5.88-2.04-3.09-5.12-6.68-9.23-10.77,3.17-.44,6.45-1.5,9.81-3.19,3.62-1.82,6.71-4.09,9.28-6.79,6.32-6.68,7.83-14.19,4.51-22.53-3.17-7.95-10.12-13.38-20.83-16.27-6.1-1.63-14.01-2.43-23.73-2.4l-4.72-19.38-5.01-20.7c.11-.1.2-.19.29-.29-3.56,2.1-29.54-5.01-77.93-21.33M220.18,145.7v-.04.04h0Z" fill="#281410"/>
      </g>
      <g id="Layer2_31_1_STROKES">
        <path d="M250.72,378.79c-11.67,0-21.94-1.42-30.71-4.24-14.05-4.52-25.35-12.96-33.63-25.12-1.15,4.34-2.86,7.36-5.18,9.18-2.66,2.1-5.41,2.17-7.94.21-2.39-1.81-3.57-4.66-3.5-8.46.03-3.6,1.3-7.22,3.78-10.79-8.52-2.14-16.02-6.67-22.33-13.48-6.54-7.05-11.24-15.86-13.96-26.2-2.77-10.53-3.21-21.65-1.31-33.07,1.7-10.06,5.15-19.76,10.27-28.91-2.11,1.54-3.92,2.72-5.43,3.54-3.62,2.04-6.16,2.35-7.75.96-2.33-2.06-.01-5.75,1.94-8.35,2.02-2.7,4.66-5.5,7.89-8.33-9.1-1.16-15.72-5.77-19.68-13.72-3.85-7.7-4.46-16.44-1.82-25.98,2.65-9.7,7.65-16.38,14.86-19.84,7.88-3.8,16.6-2.48,25.95,3.91,3.57-15.79,6.19-27.24,7.79-34.05,2.73-11.76,5.21-21.15,7.4-27.92,3.22-10.11,7.17-18.68,11.75-25.47.42-.62.84-1.22,1.27-1.81l2.01,1.46c-.41.57-.82,1.15-1.22,1.75-4.44,6.59-8.29,14.95-11.44,24.84-2.16,6.71-4.63,16.04-7.34,27.73-1.66,7.06-4.42,19.12-8.2,35.85l-.42,1.86-1.53-1.13c-9.26-6.83-17.42-8.39-24.94-4.77-6.53,3.14-11.09,9.28-13.54,18.26-2.47,8.93-1.92,17.07,1.65,24.21,4.02,8.06,10.75,12.18,20.6,12.61l3.26.14-2.52,2.06c-4.13,3.37-7.41,6.68-9.77,9.84-2.5,3.34-2.59,4.72-2.29,4.99.24.21,1.31.75,4.91-1.27,2.53-1.37,6.02-3.87,10.38-7.42l1.82,1.64c-6.89,10.52-11.39,21.87-13.4,33.73-1.84,11.06-1.42,21.84,1.26,32.02,2.61,9.94,7.11,18.4,13.37,25.14,6.42,6.92,14.12,11.35,22.9,13.17l1.98.41-1.27,1.58c-2.9,3.62-4.38,7.27-4.41,10.83-.05,3.02.78,5.12,2.53,6.46,1.63,1.26,3.13,1.19,4.9-.19,2.29-1.79,3.94-5.35,4.93-10.6l.59-3.14,1.69,2.71c8.08,12.99,19.49,21.92,33.9,26.56,13.65,4.39,31.1,5.28,51.89,2.64,30.4-5.45,50.97-15.67,61.08-30.36l1.2-1.74.94,1.9c1.26,2.55,2.19,4.25,2.76,5.05,1.55,2.24,3.22,3.56,4.96,3.94.95.2,1.92-.13,2.97-.99,1.17-.99,1.96-2.31,2.4-4.02,1.21-4.64-.75-9.15-6-13.8l-1.89-1.67,2.48-.48c8.14-1.57,15.43-5.84,21.68-12.7,6.13-6.77,10.55-15.25,13.13-25.19,2.7-10.4,3.07-21.24,1.1-32.22-2.17-12.02-7.04-23.37-14.49-33.74l1.78-1.7c4.76,3.76,8.64,6.34,11.55,7.67,2.59,1.19,3.26.91,3.28.89h0s.32-.97-2.14-4.62c-1.99-3.02-5.05-6.57-9.08-10.58l-1.78-1.77,2.48-.35c3.03-.42,6.2-1.45,9.43-3.07,3.47-1.75,6.47-3.95,8.93-6.53,6.01-6.35,7.41-13.29,4.26-21.21-3.01-7.53-9.74-12.76-20-15.53-5.86-1.57-13.58-2.36-22.93-2.36-.16,0-.31,0-.47,0h-.98s-9.96-41.03-9.96-41.03l2.41-.59,9.5,39.13c9.34.03,17.1.85,23.07,2.44,11.06,2.99,18.35,8.72,21.66,17.01,3.49,8.79,1.89,16.81-4.77,23.84-2.66,2.8-5.89,5.17-9.62,7.05-2.65,1.33-5.28,2.29-7.84,2.87,3.35,3.45,5.95,6.57,7.74,9.29,2.26,3.37,2.97,5.55,2.29,7.07-1.28,2.71-5.24.89-6.54.29-1.79-.82-3.92-2.08-6.35-3.74,5.48,9.02,9.16,18.69,10.99,28.82,2.04,11.34,1.65,22.53-1.14,33.29-2.69,10.34-7.3,19.16-13.7,26.24-6.03,6.62-12.99,10.97-20.74,12.95,4.64,4.75,6.34,9.67,5.04,14.64-.56,2.2-1.64,3.99-3.22,5.32-1.66,1.36-3.37,1.86-5.07,1.51-2.39-.51-4.57-2.17-6.48-4.94-.49-.68-1.15-1.85-2.03-3.54-10.87,14.36-31.55,24.35-61.54,29.73-7.92,1.01-15.36,1.51-22.31,1.51Z"/>
      </g>
    </g>
    <g id="Layer2_31_MEMBER_0_FILL">
      <path d="M333.02,345.74l2.07,1.37c2.08-3.2,2.63-6.14,1.66-8.82-.43,2.1-1.67,4.58-3.73,7.45Z"/>
    </g>
    <g id="Layer2_31_MEMBER_1_FILL">
      <path d="M344.2,335.6l1.37-2.07c-2.87-1.86-5.56-2.22-8.07-1.08l.29.04c1.88.51,4.02,1.55,6.42,3.11Z"/>
    </g>
    <g id="Layer2_31_MEMBER_2_FILL">
      <path d="M184.28,339.7l-.21.04c-.48,2.32-.22,4.81.79,7.45l2.65-.46c-1.29-2.03-2.37-4.38-3.23-7.04Z"/>
    </g>
  </g>
  <g>
    <g id="Layer2_1_FILL">
      <path d="M422.58,186c6.8.23,9.75-1.87,8.85-6.31-1.51-7.51-11.6-6.95-30.26,1.68-1.12,1.34-2.17,2.79-3.16,4.36,3,1.46,5.39,3.35,7.17,5.66l.27-.27.31-.24c.05-.05.1-.09.14-.14,3.75-3.41,9.31-4.99,16.68-4.73M413.18,173.03c1.89-.61,2.97-1.77,3.26-3.5.4-4.61-2.22-6.63-7.86-6.04-9.82,2.57-15.99,10.97-18.53,25.18.49,1.49.94,3.15,1.34,4.98-.4-1.83-.85-3.49-1.34-4.98-1.83-5.49-4.3-8.51-7.41-9.06-3.91-.7-6.06.23-6.45,2.78-.37,2.58.89,5.93,3.77,10.05,2.91,4.15,4.09,8.2,3.53,12.15l-69.17,56.61v12.11l76-58.64c8.69,3,14.18-.16,16.47-9.47,2.52-5.21,6.65-6.36,12.39-3.43,5.74,2.93,9.37,3.37,10.88,1.34,2.92-8.68-5.18-12.76-24.29-12.25l-.55.55c1.81,2.34,3,5.12,3.57,8.34-.57-3.22-1.76-6-3.57-8.34l-.03-.03c-1.78-2.31-4.17-4.2-7.17-5.66-.4-.19-.81-.37-1.24-.55.42.18.83.36,1.24.55.98-1.57,2.03-3.02,3.16-4.36.84-.95,1.71-1.85,2.61-2.68,2.77-2.52,5.9-4.41,9.4-5.66M397.91,198.35c1.3,5.42-.24,9.02-4.63,10.81,4.39-1.78,5.94-5.39,4.63-10.81Z" fill="#f8a773"/>
    </g>
    <g id="Layer2_1_1_STROKES">
      <path d="M313.3,275.41v-14.69l69.23-56.66c.38-3.55-.76-7.25-3.39-11-3.08-4.4-4.37-7.93-3.95-10.79.19-1.29.76-2.28,1.69-2.96,1.32-.95,3.27-1.18,5.96-.7,2.77.49,5.09,2.68,6.9,6.51,2.96-12.56,9.2-20.16,18.58-22.62l.15-.03c3.46-.36,5.87.19,7.39,1.68,1.27,1.24,1.8,3.08,1.6,5.47v.08c-.36,2.1-1.72,3.58-3.95,4.31-2.7.96-5.19,2.34-7.44,4.1,11.05-4.59,18.5-5.79,22.7-3.67,1.96.99,3.2,2.69,3.67,5.04.42,2.09.09,3.8-.99,5.08-1.54,1.81-4.45,2.61-8.89,2.47-5.68-.19-10.25.74-13.66,2.77,11.51,0,18.51,1.88,21.35,5.73,1.57,2.12,1.83,4.79.78,7.92l-.05.15-.1.13c-1.87,2.52-5.85,2.19-12.17-1.03-2.75-1.4-5.08-1.8-6.93-1.18-1.61.54-2.96,1.9-4.02,4.05-1.24,4.96-3.42,8.33-6.48,10-2.86,1.55-6.47,1.64-10.76.27l-77.22,59.58ZM315.36,261.69v9.53l74.78-57.7.53.18c3.95,1.36,7.19,1.38,9.64.05,2.56-1.39,4.41-4.35,5.5-8.79l.07-.2c1.31-2.72,3.08-4.46,5.26-5.2,2.39-.8,5.26-.37,8.52,1.3,4.92,2.51,8.28,3.13,9.49,1.76.77-2.41.6-4.34-.54-5.87-2.55-3.45-9.88-5.1-21.79-4.87,1.48,2.23,2.48,4.81,2.99,7.7l-2.03.36c-.54-3.04-1.67-5.69-3.37-7.89l.69-.53.22-.23-.94.73c-1.68-2.17-3.96-3.97-6.8-5.35l-.39-.19c-.26-.12-.53-.24-.8-.36l.8-1.9c.15.06.3.13.45.2.87-1.32,1.8-2.57,2.77-3.71h0s0,0,0,0c.85-.99,1.76-1.93,2.69-2.78,2.84-2.6,6.12-4.58,9.73-5.87h.03c1.51-.49,2.32-1.34,2.55-2.66.14-1.72-.19-3-.99-3.78-1.03-1.01-2.93-1.39-5.66-1.11-9.25,2.46-15.19,10.57-17.65,24.11.47,1.44.9,3.06,1.28,4.81l-2.01.44c-.39-1.79-.83-3.42-1.31-4.85h0s0,0,0,0c-1.69-5.09-3.91-7.91-6.6-8.39-2.05-.37-3.58-.25-4.4.35-.47.34-.75.86-.85,1.58-.34,2.29.87,5.42,3.6,9.31,3.04,4.34,4.28,8.66,3.69,12.86l-.06.4-.31.26-68.79,56.3ZM399.49,185.34c2.3,1.25,4.25,2.78,5.81,4.56,3.93-3.54,9.77-5.19,17.33-4.94,3.67.12,6.18-.47,7.25-1.74.66-.78.84-1.88.54-3.34-.35-1.73-1.19-2.91-2.58-3.61-4.15-2.1-12.91-.1-26.01,5.95-.82.97-1.6,2.01-2.33,3.12ZM393.67,210.11l-.77-1.91c3.93-1.6,5.21-4.65,4.02-9.61l2-.48c1.79,7.43-1.87,10.63-5.25,12Z" fill="#be6e35"/>
    </g>
  </g>
  <g>
    <g id="Layer2_2_FILL">
      <path d="M317.9,304.16c1.3-12.37-1.93-25.14-9.71-38.29l-31.46,25.87,7.82,27.79c10.8-5.15,21.91-10.27,33.35-15.37Z" fill="#f9a11e"/>
    </g>
    <g id="Layer2_2_1_STROKES">
      <path d="M283.89,320.99l-8.34-29.61,31.98-26.3,1.31,1.59-30.94,25.44,7.31,25.97c10.42-4.96,21.27-9.95,32.27-14.86l.84,1.88c-11.37,5.07-22.59,10.24-33.33,15.36l-1.1.53Z" fill="#cb7e29"/>
    </g>
  </g>
  <g>
    <g id="Layer2_2_MEMBER_0_FILL">
      <path d="M316.66,258.91l-8.47,6.97c7.78,13.15,11.01,25.92,9.71,38.29,2.91-1.3,5.84-2.61,8.82-3.91.87-15.6-2.48-29.38-10.05-41.35Z" fill="#ea2a2a"/>
    </g>
    <g id="Layer2_2_MEMBER_0_1_STROKES">
      <path d="M316.69,305.84l.19-1.78c1.27-12.09-1.95-24.76-9.57-37.66l-.45-.76,10.06-8.26.62.99c7.65,12.09,11.09,26.21,10.21,41.95l-.04.63-.58.25c-2.97,1.3-5.91,2.6-8.81,3.91l-1.63.73ZM309.52,266.11c7.18,12.4,10.39,24.63,9.56,36.4,2.2-.98,4.41-1.96,6.64-2.94.71-14.63-2.42-27.78-9.31-39.12l-6.89,5.66Z" fill="#b92025"/>
    </g>
  </g>
  <g>
    <g id="Layer2_3_FILL">
      <path d="M194.79,296.89c3.65,1.15,7.03,2.28,10.16,3.4,9.51-9.43,13.81-23.88,12.9-43.37l-9.5-6.31c-11.34,9.76-15.85,25.19-13.55,46.29Z" fill="#ea2a2a"/>
    </g>
    <g id="Layer2_3_1_STROKES">
      <path d="M205.23,301.47l-.61-.22c-3.11-1.11-6.52-2.25-10.14-3.38l-.64-.2-.07-.67c-2.33-21.36,2.35-37.23,13.9-47.18l.59-.51,10.61,7.03.02.52c.9,19.7-3.54,34.55-13.2,44.15l-.46.46ZM195.74,296.11c3.17,1,6.17,2.01,8.95,2.99,8.84-9.1,12.93-23.09,12.17-41.61l-8.43-5.59c-10.47,9.41-14.73,24.28-12.69,44.21Z" fill="#b92025"/>
    </g>
  </g>
  <g>
    <g id="Layer2_4_FILL">
      <path d="M251.26,278.77l-33.42-21.86c.91,19.49-3.39,33.94-12.9,43.37,12.62,4.5,23.88,9.68,33.76,15.54l12.56-37.06Z" fill="#f9a11e"/>
    </g>
    <g id="Layer2_4_1_STROKES">
      <path d="M239.27,317.36l-1.09-.65c-9.78-5.8-21.08-11-33.57-15.46l.69-1.94c12.15,4.34,23.19,9.38,32.83,14.98l11.9-35.09-32.74-21.44,1.13-1.72,34.07,22.31-13.22,39Z" fill="#cb7e29"/>
    </g>
  </g>
  <g>
    <g id="Layer2_4_MEMBER_0_FILL">
      <path d="M195.3,297.06c3.31,1.03,6.52,2.11,9.64,3.23,9.51-9.43,13.81-23.88,12.9-43.37l-8.82-5.8c.92,16.41-3.66,31.73-13.72,45.94Z" fill="#ea2a2a"/>
    </g>
    <g id="Layer2_4_MEMBER_0_1_STROKES">
      <path d="M205.23,301.47l-.61-.22c-3.11-1.11-6.35-2.19-9.62-3.21l-1.35-.42.82-1.15c9.88-13.95,14.44-29.18,13.54-45.27l-.11-2.03,10.98,7.19.02.53c.9,19.7-3.54,34.55-13.2,44.15l-.46.46ZM196.95,296.5c2.62.84,5.22,1.71,7.74,2.6,8.84-9.1,12.93-23.09,12.17-41.61l-6.72-4.4c.44,15.38-3.99,29.97-13.19,43.41Z" fill="#b92025"/>
    </g>
  </g>
  <g>
    <g id="Layer2_5_FILL">
      <path d="M190.43,433.31c-12.04,2.43-21.19.68-27.45-5.25l-28.1,27.86,15.37,11.73,23.57-13.18,16.61-21.17Z" fill="#f9a11e"/>
      <path d="M205.08,414.65l-22.03-6.45-13.24,13.14c7.89,5.72,16.61,7.36,26.18,4.91l9.09-11.6Z" fill="#f8a678"/>
    </g>
    <g id="Layer2_5_1_STROKES">
      <polygon points="196.8 426.88 195.18 425.61 203.33 415.22 183.36 409.35 170.53 422.07 169.08 420.61 182.35 407.46 182.4 407.52 182.56 406.97 183.36 407.21 206.83 414.1 196.8 426.88" fill="#be6e35"/>
    </g>
    <g id="Layer2_5_2_STROKES">
      <polygon points="150.16 468.89 133.32 456.02 162.27 427.35 163.72 428.81 136.44 455.82 150.34 466.43 173.14 453.68 189.62 432.69 191.24 433.96 174.51 455.28 150.16 468.89" fill="#cb7e29"/>
    </g>
  </g>
  <g>
    <g id="Layer2_5_MEMBER_0_FILL">
      <path d="M169.81,421.34l-6.83,6.72c6.26,5.93,15.41,7.68,27.45,5.25l5.56-7.07c-9.57,2.45-18.29.82-26.18-4.91Z" fill="#e92929"/>
    </g>
    <g id="Layer2_5_MEMBER_0_1_STROKES">
      <path d="M180.72,435.4c-7.64,0-13.81-2.2-18.43-6.58l-.77-.73,8.19-8.1.71.51c7.59,5.51,16.11,7.1,25.32,4.74l1.07,1.63-5.79,7.38-.37.08c-3.54.71-6.84,1.07-9.91,1.07ZM164.5,428.04c5.88,5.02,14.4,6.48,25.36,4.35l3.56-4.54c-8.47,1.49-16.36-.24-23.5-5.18l-5.42,5.37Z" fill="#be2227"/>
    </g>
  </g>
  <g>
    <g id="Layer2_6_FILL">
      <path d="M294.19,428.75c-4.35,5.4-10.16,11.36-17.43,17.88l-5.46,4.94,9.64,19.04,16.68-11.56c10.01-7.91,17.95-15.18,23.81-21.82-11.37,2.16-20.45-.67-27.24-8.47Z" fill="#f9a11e"/>
      <path d="M323.32,397.42l-19.76,4.01c1.26,5.7.13,11.84-3.4,18.43,9.6,8.01,19.19,10.51,28.79,7.51,8.14-13.09,6.27-23.07-5.63-29.95Z" fill="#f8a678"/>
    </g>
    <g id="Layer2_6_1_STROKES">
      <path d="M329.82,427.92l-1.75-1.09c4.13-6.64,5.61-12.48,4.39-17.36-1.06-4.23-4.19-7.92-9.32-10.96l-18.38,3.73c.96,5.63-.28,11.72-3.7,18.11l-1.82-.97c3.39-6.33,4.5-12.3,3.3-17.72l-.23-1.02,21.17-4.3.34.2c5.83,3.37,9.41,7.56,10.63,12.44,1.36,5.44-.2,11.82-4.64,18.95Z" fill="#be6e35"/>
    </g>
    <g id="Layer2_6_2_STROKES">
      <path d="M280.56,472.13l-10.53-20.8,6.04-5.47c7.19-6.45,13.02-12.42,17.32-17.76l1.6,1.29c-4.37,5.42-10.27,11.48-17.54,18l-4.87,4.41,8.75,17.29,15.7-10.89c9.86-7.79,17.83-15.09,23.63-21.64l1.54,1.36c-5.88,6.64-13.93,14.02-23.94,21.93l-17.7,12.27Z" fill="#cb7e29"/>
    </g>
  </g>
  <g>
    <g id="Layer2_6_MEMBER_0_FILL">
      <path d="M294.19,428.75c6.79,7.81,15.88,10.63,27.24,8.47,3.07-3.45,5.58-6.73,7.51-9.85-9.6,3-19.19.49-28.79-7.51-1.54,2.87-3.53,5.84-5.97,8.89Z" fill="#e92929"/>
    </g>
    <g id="Layer2_6_MEMBER_0_1_STROKES">
      <path d="M314.43,438.96c-8.45,0-15.5-3.19-21.02-9.54l-.56-.65.54-.67c2.39-2.99,4.36-5.92,5.87-8.73l.6-1.11.97.81c9.26,7.73,18.62,10.19,27.82,7.32l2.64-.83-1.46,2.35c-1.96,3.15-4.52,6.51-7.62,10l-.23.26-.35.07c-2.5.47-4.9.71-7.19.71ZM295.53,428.71c6.45,7.02,14.76,9.5,25.36,7.58,2.2-2.5,4.12-4.93,5.72-7.25-8.72,1.83-17.5-.72-26.15-7.61-1.35,2.36-3,4.8-4.93,7.27Z" fill="#be2227"/>
    </g>
  </g>
  <g>
    <g id="Layer2_7_FILL">
      <path d="M306.51,465.36c2.1.66,5.35.39,9.74-.82,4.94-1.35,10.41-3.66,16.4-6.93-4.98-1.63-11.03-2.97-18.15-4.01-4.8,2.9-7.88,5.48-9.23,7.72-1.26,2.06-.85,3.41,1.24,4.05Z" fill="#b02324"/>
      <path d="M332.93,457.71c-.09-.03-.18-.06-.27-.1-5.99,3.27-11.46,5.58-16.4,6.93-4.39,1.21-7.64,1.49-9.74.82-2.08-.64-2.49-1.99-1.24-4.05,1.35-2.24,4.43-4.82,9.23-7.72-4.05-.59-8.46-1.08-13.21-1.48-3.31.05-6.04,2.11-8.2,6.18-5.59,7.96-9.85,7.91-12.76-.14-1.84-5.99-4.22-8.83-7.14-8.54-5.54,5.78-10.86,11.69-15.95,17.74,19.91,8.3,37.46,12.86,52.67,13.69,17.45.91,34.19-.89,50.2-5.42-5.95-7.91-15.01-13.88-27.17-17.91M356.46,481.72c3.02-1.26,4.23-3.29,3.64-6.11-16.01,4.53-32.74,6.34-50.2,5.42-15.2-.83-32.76-5.39-52.67-13.69-2.52,3.02-3.46,5.21-2.81,6.55,17.2,7.61,34.55,11.88,52.05,12.8,17.52.94,34.19-.72,49.99-4.98Z" fill="#e92929"/>
    </g>
    <g id="Layer2_7_1_STROKES">
      <path d="M315.72,487.99c-3.07,0-6.17-.08-9.29-.25-17.55-.93-35.19-5.27-52.43-12.9l-.35-.15-.16-.34c-.86-1.79.08-4.22,2.95-7.66l.79.66-.79-.66c5.09-6.03,10.47-12.02,16-17.79l.26-.27.38-.04c3.47-.35,6.23,2.78,8.22,9.27,1.18,3.26,2.62,5.12,4.13,5.32,1.76.24,4.1-1.64,6.77-5.42,2.33-4.36,5.38-6.61,9.06-6.67h.05s.05,0,.05,0c4.76.4,9.23.9,13.29,1.48,7.14,1.05,13.3,2.42,18.31,4.07.07.02.18.05.28.09,12.31,4.07,21.62,10.22,27.67,18.27l-.82.62,1.01-.21c.49,2.31.15,5.44-4.25,7.27l-.13.04c-13.02,3.51-26.78,5.27-41.01,5.27ZM255.26,473.15c16.87,7.41,34.12,11.63,51.28,12.54,17.3.92,33.98-.75,49.59-4.94,2.43-1.03,3.39-2.53,3.01-4.7-5.8-7.61-14.72-13.46-26.53-17.36-.08-.03-.16-.05-.24-.07-4.93-1.63-10.97-2.97-17.99-4-4-.58-8.41-1.07-13.11-1.46-2.91.07-5.28,1.91-7.26,5.63l-.07.11c-3.24,4.61-6.11,6.68-8.77,6.33-2.39-.32-4.29-2.51-5.81-6.71-1.6-5.19-3.51-7.83-5.71-7.88-5.4,5.64-10.65,11.49-15.62,17.39-2.51,3.01-2.84,4.48-2.76,5.14Z" fill="#9a1c20"/>
    </g>
    <g id="Layer2_7_2_STROKES">
      <path d="M318.55,481.95c-2.88,0-5.78-.08-8.69-.23-15.21-.83-33.01-5.45-52.9-13.74l.53-1.27c19.74,8.23,37.39,12.82,52.44,13.64,17.29.9,34.11-.91,49.97-5.4l.37,1.32c-13.34,3.77-27.34,5.67-41.73,5.67ZM309.18,466.4c-1.1,0-2.06-.13-2.88-.39-1.19-.37-1.96-.97-2.27-1.8-.34-.9-.12-1.99.66-3.26,1.42-2.36,4.52-4.96,9.48-7.95l.71,1.18c-4.7,2.83-7.73,5.35-9.01,7.49-.37.61-.77,1.47-.55,2.06.16.41.63.74,1.39.98,1.97.62,5.12.34,9.36-.83,4.87-1.33,10.34-3.64,16.26-6.86l.66,1.21c-6.01,3.27-11.58,5.62-16.55,6.97-2.91.8-5.31,1.2-7.25,1.2Z" fill="#9a1c20"/>
    </g>
  </g>
  <g>
    <g id="Layer2_8_FILL">
      <path d="M121.5,463.57c2.68-.96,4.44-2.64,5.28-5.04.8-2.33.69-5.17-.34-8.51-12.97,1.88-24.05,4.64-33.25,8.27,12.81,5.65,22.25,7.41,28.31,5.28Z" fill="#b02324"/>
      <path d="M162.29,474.86c1.86-1.71,3.39-3.62,4.6-5.73-18,5.97-35.32,9.55-51.95,10.74-16.49,1.14-32.3-.1-47.42-3.74-.57,2.47.57,4.22,3.43,5.25,14.94,3.39,30.58,4.43,46.94,3.12,15.92-1.3,30.72-4.52,44.4-9.64M166.89,469.13c2.75-4.8,5.49-10.05,8.23-15.75-3.5-5.76-9.32-3.93-17.46,5.49-2.74,3.16-4.8,4.23-6.18,3.23-1.35-1.01-1.58-3.58-.69-7.72,1.45-4.8-1.44-6.83-8.68-6.11-5.5.46-10.73,1.04-15.68,1.75,1.03,3.34,1.14,6.18.34,8.51-.85,2.4-2.61,4.08-5.28,5.04-6.06,2.13-15.5.37-28.31-5.28-11.5,4.57-20.06,10.52-25.66,17.84,15.12,3.64,30.93,4.88,47.42,3.74,16.63-1.19,33.95-4.77,51.95-10.74Z" fill="#e92929"/>
    </g>
    <g id="Layer2_8_1_STROKES">
      <path d="M104.5,486.07c-11.63,0-22.94-1.23-33.77-3.69l-.12-.04c-4.26-1.53-4.57-4.35-4.09-6.45l.05-.22.14-.18c5.7-7.44,14.48-13.55,26.1-18.16,9.23-3.65,20.49-6.46,33.48-8.33,4.95-.72,10.24-1.32,15.74-1.77,4.67-.47,7.68.18,9.17,1.99,1.08,1.31,1.28,3.13.6,5.4-1.03,4.81-.25,6.22.3,6.64.81.6,2.56-.52,4.78-3.08,5.56-6.44,10.07-9.42,13.78-9.1,2.14.18,3.94,1.44,5.34,3.75l.29.48-.24.5c-2.74,5.69-5.52,11.01-8.27,15.81-1.25,2.19-2.86,4.2-4.79,5.98l-.15.14-.19.07c-13.7,5.13-28.74,8.4-44.68,9.7-4.53.36-9.03.54-13.48.54ZM71.25,480.39c14.75,3.34,30.41,4.37,46.57,3.09,15.67-1.28,30.46-4.48,43.93-9.51,1.71-1.6,3.14-3.4,4.26-5.35,2.64-4.61,5.31-9.71,7.95-15.17-.99-1.44-2.12-2.2-3.46-2.31-2.04-.17-5.79,1.15-12.05,8.4-1.17,1.35-4.74,5.45-7.56,3.38-1.73-1.29-2.08-4.15-1.08-8.77l.02-.08c.48-1.6.41-2.79-.2-3.54-.69-.84-2.53-1.73-7.39-1.24-5.47.46-10.73,1.05-15.64,1.76h0c-12.83,1.85-23.94,4.61-33.02,8.21-11.18,4.43-19.62,10.25-25.09,17.31-.24,1.26-.06,2.78,2.76,3.82Z" fill="#9a1c20"/>
    </g>
    <g id="Layer2_8_2_STROKES">
      <path d="M103.32,480.96c-12.38,0-24.43-1.39-35.95-4.16l.32-1.33c14.98,3.6,30.87,4.86,47.21,3.72,16.49-1.18,33.92-4.78,51.78-10.71l.43,1.3c-17.97,5.96-35.51,9.59-52.11,10.77-3.92.27-7.82.41-11.68.41ZM115.81,465.12c-5.87,0-13.54-2.07-22.89-6.19l.55-1.26c12.59,5.54,21.94,7.31,27.8,5.25,2.49-.89,4.08-2.41,4.86-4.62.75-2.18.63-4.89-.35-8.06l1.31-.41c1.07,3.46,1.18,6.46.34,8.92-.92,2.6-2.83,4.44-5.7,5.47-1.71.6-3.69.9-5.92.9Z" fill="#9a1c20"/>
    </g>
  </g>
  <g>
    <g id="Layer2_9_FILL">
      <path d="M214.76,361.4c-8.43,16.97-19.96,30.78-34.59,41.45,41.93,9,78.98,8.83,111.17-.51,14.32-4.5,25.16-7.11,32.49-7.82-.21-.22-.43-.45-.65-.69-.26-.28-.54-.57-.82-.86-4.66-4.92-9.66-9.25-14.99-13-31.1,1.36-61.97-4.82-92.61-18.56M243.27,271.09l-11.43,15.82c-1.03,24.21-5.08,45.35-12.15,63.41l.24.07c28.27,10.65,57.86,16.04,88.76,16.16,1.92-24.28,1-47.47-2.78-69.55l-16.54-21.03-46.11-4.87Z" fill="#f9a11e"/>
    </g>
    <g id="Layer2_9_1_STROKES">
      <path d="M180.78,403.68l-1.21-1.66c14.42-10.52,25.96-24.33,34.29-41.06l1.84.92c-8.48,17.03-20.23,31.09-34.92,41.8ZM323.07,395.22c-.21-.23-.42-.46-.63-.68-.27-.29-.54-.58-.82-.87-4.6-4.85-9.6-9.18-14.86-12.87l1.18-1.68c5.37,3.77,10.47,8.19,15.17,13.14.28.29.55.59.83.88.21.23.43.46.64.69l-1.52,1.39ZM309.73,366.64l-2.05-.16c1.91-24.1.98-47.42-2.77-69.31l2.03-.35c3.77,22.06,4.71,45.55,2.79,69.82ZM220.66,350.69l-1.92-.75c6.99-17.87,11.06-39.09,12.08-63.08l2.06.09c-1.03,24.21-5.14,45.66-12.22,63.74ZM289.28,276.98l-46.11-4.87.22-2.05,46.11,4.87-.22,2.05Z" fill="#cb7e29"/>
    </g>
  </g>
  <g>
    <g id="Layer2_9_MEMBER_0_FILL">
      <path d="M255.18,258.94c-2.64,9.67-1.48,21.27,3.5,34.79,8.26,7.98,17.26,7.83,27-.45,3.59-10.84,4.89-21.93,3.91-33.28l-34.41-1.06Z" fill="#f8a678"/>
    </g>
    <g id="Layer2_9_MEMBER_0_1_STROKES">
      <path d="M271.36,300.66c-4.66,0-9.14-2.06-13.4-6.18l-.17-.16-.08-.22c-5.03-13.66-6.22-25.58-3.53-35.42l.21-.78,36.14,1.12.08.91c.99,11.43-.34,22.77-3.96,33.69l-.09.27-.22.19c-5.17,4.39-10.17,6.58-14.98,6.58ZM259.56,293.16c7.77,7.4,16.03,7.24,25.23-.47,3.37-10.28,4.66-20.93,3.85-31.68l-32.67-1.01c-2.29,9.22-1.08,20.36,3.6,33.16Z" fill="#be6e35"/>
    </g>
  </g>
  <g>
    <g id="Layer2_9_MEMBER_1_FILL">
      <path d="M254.59,271.6h-5.04c4.09,23.27,10.47,38.22,19.15,44.84,8.69,6.62,15.05,5.19,19.08-4.29,4.05-9.45,5.02-21.75,2.92-36.88h-3.91c-1.12,6.89-3.61,13.22-7.48,19.01-3.84,5.81-8.2,6.23-13.07,1.24-4.85-5-8.73-12.97-11.63-23.92Z" fill="#ea2a2a"/>
    </g>
    <g id="Layer2_9_MEMBER_1_1_STROKES">
      <path d="M278.27,321.56c-3.02,0-6.44-1.44-10.18-4.29-8.86-6.75-15.44-22.06-19.55-45.49l-.21-1.21h7.06l.2.77c2.84,10.72,6.68,18.62,11.39,23.46,2.19,2.25,4.24,3.3,6.08,3.13,1.84-.17,3.66-1.59,5.4-4.2,3.76-5.65,6.21-11.91,7.3-18.62l.14-.86h5.68l.12.89c2.12,15.26,1.12,27.86-2.97,37.45-2.08,4.88-4.84,7.8-8.2,8.69-.73.19-1.48.29-2.27.29ZM250.78,272.63c4.03,22.22,10.27,36.68,18.56,43,4.18,3.19,7.77,4.42,10.67,3.65,2.72-.72,5.01-3.24,6.83-7.51,3.87-9.06,4.86-20.99,2.95-35.47h-2.14c-1.2,6.67-3.72,12.91-7.47,18.57-2.1,3.16-4.43,4.88-6.92,5.11-2.5.24-5.1-1.03-7.75-3.74-4.85-4.98-8.78-12.92-11.7-23.6h-3.03Z" fill="#b92025"/>
    </g>
  </g>
  <g id="Layer2_9_MEMBER_2_FILL">
    <path d="M306.61,294.73c-.72-4.23-3.93-6.79-9.64-7.69l10.37,30.29-.73-22.6Z" fill="#f9a11e"/>
  </g>
  <g>
    <g id="Layer2_9_MEMBER_3_FILL">
      <path d="M219.7,350.31c-1.51,3.84-3.15,7.53-4.94,11.08,30.64,13.74,61.5,19.93,92.61,18.56.54-4.5.99-8.97,1.34-13.42-30.9-.12-60.49-5.51-88.76-16.16l-.24-.07Z" fill="#ea2a2a"/>
    </g>
    <g id="Layer2_9_MEMBER_3_1_STROKES">
      <path d="M299.05,381.17c-28.36,0-56.81-6.32-84.7-18.82l-.98-.44.48-.96c1.75-3.52,3.4-7.23,4.89-11.02l.34-.87,1.22.35c28.03,10.56,57.77,15.98,88.41,16.11h1.11s-.09,1.11-.09,1.11c-.35,4.43-.8,8.95-1.34,13.44l-.1.87-.87.04c-2.78.12-5.57.18-8.36.18ZM216.17,360.91c29.73,13.17,60.09,19.24,90.27,18.06.45-3.8.83-7.62,1.14-11.38-30.23-.26-59.59-5.63-87.3-15.97-1.27,3.18-2.66,6.3-4.12,9.3Z" fill="#b92025"/>
    </g>
  </g>
  <g>
    <g id="Layer2_9_MEMBER_4_FILL">
      <path d="M180.17,402.84c-3.62,2.64-7.43,5.09-11.43,7.34,16.27,7.55,36.29,11.78,60.04,12.7,23.79.94,45.2-2.13,64.23-9.2,19.03-7.07,32.31-9.72,39.84-7.96-2.61-3.68-5.36-7.12-8.23-10.33-.25-.28-.5-.57-.75-.86-.01,0-.02-.01-.03-.03-7.34.72-18.17,3.33-32.49,7.82-32.19,9.35-69.24,9.52-111.17.51Z" fill="#ea2a2a"/>
    </g>
    <g id="Layer2_9_MEMBER_4_1_STROKES">
      <path d="M236.87,424.09c-2.67,0-5.37-.05-8.1-.16-23.8-.93-44.14-5.24-60.45-12.81l-1.82-.84,1.75-.99c3.95-2.23,7.76-4.67,11.32-7.28l.37-.27.45.1c41.56,8.92,78.79,8.76,110.67-.5,14.31-4.49,25.31-7.13,32.68-7.84l.44-.04.44.39.77.86c2.89,3.22,5.68,6.73,8.31,10.42l1.58,2.22-2.65-.62c-7.29-1.71-20.49.96-39.24,7.92-16.89,6.27-35.87,9.43-56.51,9.43ZM171,410.08c15.76,6.95,35.2,10.91,57.85,11.79,23.52.91,45-2.16,63.82-9.15,17.44-6.47,29.89-9.24,37.89-8.42-2.15-2.89-4.39-5.65-6.7-8.22l-.44-.49c-7.23.77-17.91,3.36-31.77,7.71-32.11,9.32-69.53,9.53-111.24.64-2.99,2.16-6.15,4.22-9.4,6.13Z" fill="#b92025"/>
    </g>
  </g>
  <g id="Layer2_9_MEMBER_5_FILL">
    <path d="M238.16,280.04c-5.06,1.1-7.4,3.9-7.03,8.41.76,14.01,1.37,22.63,1.85,25.87l5.18-34.28Z" fill="#f9a11e"/>
  </g>
  <g>
    <g id="Layer0_0_FILL">
      <path d="M148.54,175.94c-1.24-2.1-3.15-2.97-5.73-2.61-7.18,1.65-11.04,6.4-11.56,14.27-.07,1.05-.08,2.17-.03,3.36-.05-1.19-.03-2.31.03-3.36-4.94-13.13-13.11-19.85-24.5-20.18-3.5.39-5.66,2.17-6.48,5.35-.85,3.25.27,5.42,3.36,6.52,6.73.69,11.48,3.28,14.27,7.79-14.82-4.57-23.23-1.17-25.22,10.22-.27,4.67,1.99,5.89,6.79,3.67,3.55-2.49,7.97-3.1,13.28-1.82-9.74,4.78-14.01,10.95-12.8,18.49.69,1.78,1.75,2.8,3.19,3.05,1.53.3,3.79-1.72,6.76-6.04,2.97-4.35,6.72-4.95,11.25-1.82,4.53,3.13,9.44,2.76,14.72-1.13.55-.59,1.11-1.24,1.68-1.92-.57.69-1.13,1.33-1.68,1.92l78.61,56.17v-11.05l-72.67-56.65c-.48-.37-.75-.61-.82-.72-1.08-1.85-1.4-3.95-.96-6.28,1.26-4.09,3.82-7.7,7.69-10.81,1.81-2.17,2.08-4.32.82-6.45M127.95,195.19c-1.3,5.42.24,9.02,4.63,10.81-4.39-1.78-5.94-5.39-4.63-10.81Z" fill="#f8a773"/>
    </g>
    <g id="Layer0_0_1_STROKES">
      <path d="M215.51,269.9l-79.64-56.9c-5.43,3.75-10.57,3.99-15.3.71-2.07-1.43-3.94-2-5.56-1.71-1.54.28-2.97,1.38-4.26,3.26-3.35,4.87-5.76,6.87-7.8,6.47-1.8-.31-3.13-1.56-3.96-3.7l-.06-.21c-1.17-7.27,2.43-13.38,10.7-18.16-3.74-.4-6.95.32-9.57,2.17l-.16.09c-2.93,1.35-5.06,1.53-6.52.54-1.3-.89-1.89-2.64-1.74-5.2v-.12c.91-5.15,3.11-8.82,6.55-10.93,3.99-2.44,9.68-2.76,16.97-.95-2.7-2.76-6.6-4.42-11.65-4.93l-.24-.05c-3.61-1.28-5-3.96-4.01-7.75.94-3.62,3.42-5.68,7.37-6.12h.07s.07,0,.07,0c10.74.3,18.8,6.14,23.99,17.38,1.43-6.13,5.4-9.98,11.82-11.45l.09-.02c2.98-.42,5.32.65,6.76,3.1,1.03,1.74,1.7,4.48-.92,7.63l-.15.14c-3.67,2.95-6.13,6.4-7.33,10.25-.37,2.05-.11,3.83.81,5.45.06.05.21.19.6.49l73.08,56.96v13.55ZM137.41,211.56l76.04,54.34v-8.55l-72.27-56.34c-.73-.55-.94-.79-1.07-1-1.2-2.07-1.57-4.42-1.09-6.99l.03-.11c1.3-4.25,3.98-8.03,7.94-11.24,1.48-1.81,1.69-3.47.67-5.19h0c-1.02-1.74-2.5-2.41-4.66-2.12-6.72,1.56-10.23,5.92-10.72,13.33h0c-.07,1.01-.08,2.11-.03,3.26l-2.06.08c-.04-1.14-.04-2.23.02-3.24-4.82-12.65-12.48-18.97-23.41-19.3-3.02.36-4.83,1.85-5.53,4.58-.7,2.7.1,4.32,2.6,5.25,6.96.74,11.98,3.52,14.92,8.26l1.45,2.34-2.63-.81c-8.16-2.52-14.32-2.55-18.32-.11-2.9,1.77-4.78,4.96-5.57,9.47-.07,1.22.03,2.77.85,3.32.76.52,2.33.28,4.41-.67,3.77-2.61,8.49-3.26,14.03-1.92l2.77.67-2.56,1.26c-9.33,4.58-13.34,10.24-12.25,17.3.55,1.37,1.32,2.13,2.37,2.31.3.05,1.85.03,5.73-5.61,1.61-2.35,3.48-3.73,5.58-4.12,2.18-.4,4.57.28,7.11,2.04,4.14,2.87,8.54,2.52,13.44-1.06.51-.56,1.05-1.17,1.58-1.81l1.58,1.32c-.31.38-.63.74-.94,1.1ZM132.19,206.95c-3.38-1.37-7.03-4.57-5.25-12l2,.48c-1.19,4.96.08,8.02,4.02,9.61l-.77,1.91Z" fill="#be6e35"/>
    </g>
  </g>
  <g>
    <g id="Layer0_1_FILL">
      <path d="M195.3,297.06c3.32,1.03,6.54,2.1,9.68,3.23,9.49-9.42,13.79-23.88,12.9-43.37l-8.85-5.76c.91,16.4-3.66,31.7-13.72,45.91Z" fill="#ea2a2a"/>
    </g>
    <g id="Layer0_1_1_STROKES">
      <path d="M205.24,301.48l-.61-.22c-3.1-1.11-6.34-2.19-9.63-3.21l-1.35-.42.82-1.16c9.88-13.94,14.43-29.17,13.54-45.26l-.11-2.03,11,7.16.02.53c.9,19.7-3.54,34.55-13.2,44.15l-.46.46ZM196.95,296.5c2.64.84,5.24,1.71,7.76,2.6,8.83-9.1,12.93-23.09,12.17-41.61l-6.73-4.39c.44,15.38-3.99,29.96-13.19,43.39Z" fill="#b92025"/>
    </g>
  </g>
  <g>
    <g>
      <g id="Layer2_0_1_STROKES">
        <path d="M230,156.46c-.09,0-.18-.03-.26-.09-.18-.14-.21-.4-.07-.58l5.51-7c.14-.18.4-.21.58-.07.18.14.21.4.07.58l-5.51,7c-.08.1-.2.16-.33.16Z"/>
      </g>
      <g>
        <g id="Layer2_30_FILL">
          <path d="M248.59,51.29c-6.38-8.56-11.18-18.69-14.41-30.39-.94-3.37-2.35-4.35-4.22-2.94-16.84,14.63-23.71,32.7-20.62,54.2l91.97-9.03c1.9-6.32.5-13.61-4.22-21.86-4.75-8.31-12.74-17.41-23.98-27.29-2.02-1.71-2.87-.41-2.57,3.89,1.27,19.66-.26,30.68-4.6,33.09-5.08,1.96-10.86,2.07-17.35.33Z" fill="#ed2f26"/>
        </g>
        <g id="Layer2_30_1_STROKES">
          <path d="M208.27,73.51l-.17-1.18c-3.14-21.85,3.94-40.46,21.04-55.32l.07-.06c1.37-1.03,2.48-.96,3.18-.72,1.32.45,2.3,1.86,2.99,4.32,3.13,11.35,7.82,21.31,13.95,29.64,5.99,1.54,11.4,1.41,16.08-.37,2.63-1.55,5.41-8.37,3.89-31.88-.24-3.38.2-5.09,1.45-5.73.92-.47,1.98-.19,3.16.81,11.3,9.94,19.46,19.23,24.25,27.62,4.87,8.52,6.33,16.21,4.33,22.84l-.24.8-93.98,9.22ZM230.74,18.92c-16.09,14-22.92,31.44-20.33,51.88l89.93-8.83c1.45-5.78,0-12.54-4.33-20.09-4.66-8.15-12.64-17.23-23.72-26.97-.17-.14-.3-.23-.4-.3-.11.38-.24,1.27-.11,3.17,1.33,20.66-.33,31.54-5.23,34.26l-.15.07c-5.31,2.05-11.4,2.17-18.12.37l-.42-.11-.26-.35c-6.44-8.64-11.36-19.01-14.61-30.81-.65-2.32-1.32-2.61-1.39-2.64-.17-.06-.49.07-.86.33Z" fill="#9a1c20"/>
        </g>
      </g>
      <g>
        <g id="Layer2_30_MEMBER_0_FILL">
          <path d="M272.19,47.97c-12.37-12.92-21.39-14.02-27.08-3.31-2.65,4.83-7.27,9.44-13.87,13.83l30.64-3.89c6.82-.75,10.26-2.95,10.31-6.63Z" fill="#ed2f26"/>
        </g>
        <g id="Layer2_30_MEMBER_0_1_STROKES">
          <path d="M231.4,59.72l-.85-2.27c6.4-4.26,10.93-8.76,13.47-13.39,2.48-4.66,5.66-7.3,9.45-7.83,5.46-.76,11.88,2.8,19.62,10.88l.35.37v.51c-.07,4.38-3.92,7.02-11.43,7.84l-30.62,3.89ZM254.91,38.62c-.37,0-.74.02-1.09.07-2.96.41-5.51,2.61-7.6,6.55-2.16,3.94-5.61,7.76-10.27,11.4l25.79-3.28c5.74-.63,8.82-2.28,9.19-4.93-6.33-6.52-11.7-9.82-16.01-9.82Z" fill="#9a1c20"/>
        </g>
      </g>
      <g id="Layer2_30_MEMBER_0_MEMBER_0_FILL">
        <path d="M260.85,45.74v-.04c-2.48-2.95-4.96-3.98-7.41-3.06-2.04.72-4.4,3.05-7.08,7,2.71-3.12,5.16-5.08,7.37-5.88,2.24-.8,4.61-.14,7.12,1.99Z" fill="#9a1c20"/>
        <path d="M260.85,45.7v.04c0,.06.03.08.08.08l-.08-.12Z"/>
      </g>
      <g id="Layer2_30_MEMBER_1_FILL">
        <path d="M238.32,50.29c-4.99-1.95-9.98-.82-14.99,3.4l-.21.25c5.45-3.16,10.51-4.37,15.2-3.64M214.97,43.42c3.09-2.93,7.09-3.89,12.01-2.9,2.71.52,7.7,2.4,14.99,5.63l-.17-.17c-6.6-3.75-11.91-5.96-15.94-6.63-5-.83-8.63.52-10.89,4.06Z" fill="#9a1c20"/>
      </g>
      <g id="Layer2_30_MEMBER_2_FILL">
        <path d="M271.28,42.88l-.04-.04-.04.08s.06-.01.08-.04Z"/>
        <path d="M271.28,42.88c8.36-3.2,13.62-8.23,15.78-15.07l-.75.08c-2.71,4.96-7.73,9.94-15.07,14.95l.04.04Z" fill="#9a1c20"/>
      </g>
      <g id="Symbol_6_0_Layer1_0_FILL">
        <path d="M327.31,120.02l-.12-1.12-121.49,4.84-.25.75c-2.76,7.54-4.08,18.28-3.98,32.22.11,13.79,1.16,26.91,3.15,39.34l.04.08.04.12c9.8,27.27,21.41,48.45,34.82,63.52,5.85,6.6,11.69,11.77,17.52,15.53,5.49,3.56,10.39,5.52,14.7,5.88,8.39.8,16.7-4.07,24.93-14.62,7.43-9.58,13.97-22.68,19.63-39.3,4.94-14.52,8.67-32.46,11.18-53.83,2.15-18.3,2.1-36.11-.17-53.42M325.82,121.47c1.95,15.73,1.82,32.94-.41,51.64-2.14,18.23-5.98,35.45-11.51,51.68-5.53,16.36-11.94,29.21-19.21,38.55-7.55,9.72-15.14,14.28-22.77,13.71-3.93-.36-8.44-2.18-13.54-5.47-5.62-3.65-11.29-8.69-17.02-15.11-14.27-16.04-25.83-36.33-34.66-60.87-2.26-14.02-3.45-26.98-3.56-38.88-.11-11.46,1.34-21.64,4.35-30.56l118.35-4.68Z" fill="#be6e35"/>
        <path d="M325.4,173.11c2.23-18.7,2.37-35.91.41-51.64l-118.35,4.68c-3.01,8.92-4.46,19.1-4.35,30.56.11,11.9,1.3,24.86,3.56,38.88,8.83,24.54,20.39,44.83,34.66,60.87,5.73,6.42,11.4,11.46,17.02,15.11,5.1,3.28,9.61,5.11,13.54,5.47,7.63.58,15.22-3.99,22.77-13.71,7.28-9.34,13.68-22.19,19.21-38.55,5.53-16.22,9.37-33.45,11.51-51.68Z" fill="url(#linear-gradient)"/>
      </g>
      <g>
        <g id="Layer2_41_FILL">
          <path d="M203.7,180.11l1.16-40.5-8.24,3.4v32.3l7.08,4.8Z" fill="#281410"/>
        </g>
        <g id="Layer2_41_1_STROKES">
          <rect x="184.03" y="158.62" width="40.51" height="2.48" transform="translate(38.64 359.48) rotate(-88.36)"/>
        </g>
      </g>
      <g id="Layer2_42_FILL">
        <path d="M304.07,206.99c4.65,0,8.61-1.72,11.9-5.17,3.28-3.41,4.92-7.56,4.92-12.43s-1.64-9.04-4.92-12.48c-3.28-3.41-7.25-5.12-11.9-5.12s-8.61,1.71-11.9,5.12c-3.28,3.44-4.92,7.6-4.92,12.48s1.64,9.02,4.92,12.43c3.28,3.45,7.25,5.17,11.9,5.17Z" fill="url(#radial-gradient)"/>
      </g>
      <g id="Layer2_47_FILL">
        <path d="M258.45,175.93c-4.44-4.61-9.81-6.92-16.11-6.92s-11.66,2.31-16.11,6.92c-4.44,4.67-6.67,10.3-6.67,16.89,0,6.6,2.22,12.2,6.67,16.81,4.44,4.67,9.81,7,16.11,7s11.66-2.33,16.11-7c4.42-4.61,6.63-10.21,6.63-16.81s-2.21-12.23-6.63-16.89Z" fill="url(#radial-gradient1)"/>
      </g>
      <g>
        <g id="Symbol_9_0_Layer4_0_FILL">
          <path d="M200.43,73.07c-1.84,1.56-3.54,3.24-5.09,5.05h0c-2.17,2.6-4.32,5.76-6.46,9.48,2.71,1.65,4.47,6.55,5.3,14.7.97,3.78,2.25,7.01,3.85,9.69.25-.5.52-.99.83-1.49,1.99-3.67,3.53-5.8,4.64-6.38-.08.17-.15.33-.21.5-.08.11-.15.23-.21.37-.25.5-.47.99-.66,1.49-1.46,3.12-2.69,6.02-3.69,8.7-2.82,7.56-3.85,13.44-3.11,17.64.94,5.08,3.75,8.63,8.45,10.64,4.67,1.96,9.76,1.93,15.28-.08,3.01-1.1,5.89-2.84,8.65-5.22,2.6-2.19,4.81-4.67,6.63-7.45.15-.21.28-.41.41-.62l.33.21.7-.41c.15.25.31.5.46.75l.04-.17c.22.08.44.16.66.25,2.06.68,4.58.93,7.54.75h0c.83-.03,2.29-.39,4.39-1.08,1.99-.69,3.02-1.05,3.11-1.08,2.57,1.79,5.71,3.35,9.44,4.68,7.4,2.71,13.94,2.97,19.63.79,1.68-.61,3.6-1.82,5.76-3.64,1.08-.91,2.02-1.74,2.82-2.48l5.13,1.74c3.75,1.24,6.38,2.04,7.87,2.4,4.51,1.05,8.72,1.56,12.63,1.53,3.98-.03,8.46-.77,13.46-2.24,4.94-1.46,8.57-3.11,10.89-4.93,2.68-2.1,4.96-4.76,6.83-7.99,2.24-3.89,3.4-7.87,3.48-11.93.14-6.27-2.15-13.4-6.87-21.41-8.68-14.81-23.01-25.52-42.98-32.13-7.71-2.55-15.7-4.28-23.98-5.18-7.1-.76-13.31-.82-18.63-.17-10.74,1.33-20.91,4.05-30.52,8.16-9.74,4.19-18.67,9.71-26.79,16.56Z" fill="#281410"/>
          <path d="M195.34,78.12c1.56-1.81,3.25-3.5,5.09-5.05,8.12-6.85,17.05-12.37,26.79-16.56,9.61-4.11,19.78-6.82,30.52-8.16,5.32-.65,11.53-.59,18.63.17,8.27.9,16.26,2.62,23.98,5.18,19.98,6.61,34.3,17.32,42.98,32.13,4.72,8.01,7.01,15.14,6.87,21.41-.08,4.06-1.24,8.03-3.48,11.93-1.88,3.23-4.15,5.89-6.83,7.99-2.32,1.82-5.95,3.46-10.89,4.93-5,1.46-9.48,2.21-13.46,2.24-3.91.03-8.12-.48-12.63-1.53-1.49-.36-4.11-1.16-7.87-2.4l-5.13-1.74c-.8.75-1.74,1.57-2.82,2.48-2.15,1.82-4.07,3.04-5.76,3.64-5.69,2.18-12.23,1.92-19.63-.79-3.73-1.33-6.87-2.88-9.44-4.68-.08.03-1.12.39-3.11,1.08-2.1.69-3.56,1.05-4.39,1.08h0c-2.96.18-5.47-.07-7.54-.75-.22-.09-.44-.17-.66-.25l-.04.17c-.15-.25-.3-.49-.46-.75l-.7.41-.33-.21c-.13.21-.27.41-.41.62-1.82,2.78-4.03,5.27-6.63,7.45-2.76,2.37-5.65,4.11-8.65,5.22-5.52,2.02-10.61,2.04-15.28.08-4.69-2.02-7.51-5.56-8.45-10.64-.75-4.2.29-10.08,3.11-17.64.99-2.68,2.22-5.58,3.69-8.7.19-.5.41-.99.66-1.49.06-.14.12-.26.21-.37.06-.17.12-.33.21-.5-1.1.58-2.65,2.71-4.64,6.38-.3.5-.58.99-.83,1.49-4.42,8.03-6.03,15.13-4.84,21.28,1.08,5.94,4.38,10.09,9.9,12.46h.04c5.19,2.21,10.88,2.19,17.06-.04h.04c3.26-1.19,6.39-3.05,9.4-5.59,1.82-1.52,4-4.09,6.54-7.7l.21.08h.08l.04.04c3.31,1.08,6.11,1.55,8.41,1.41,1.24-.06,2.84-.48,4.8-1.28l2.57-1.2c2.9,1.9,6.32,3.55,10.27,4.93,7.87,2.82,14.47,3.04,19.79.66,2.13-.91,4.75-3.04,7.87-6.38,1.44.55,3.51,1.37,6.21,2.44,2.35.91,4.32,1.55,5.92,1.9,5.16,1.21,9.57,1.81,13.21,1.78,4.06-.03,8.75-.84,14.08-2.44,5.11-1.55,8.94-3.23,11.51-5.05,3.01-2.15,5.76-5.4,8.24-9.73,2.57-4.5,3.89-8.59,3.98-12.26.22-7.23-2.07-14.95-6.87-23.15-4.42-7.59-10.52-14.22-18.3-19.88-7.56-5.49-16.56-9.97-27-13.42-6.46-2.15-14.64-3.77-24.56-4.84h0c-7.31-.79-13.7-.84-19.17-.17-10.99,1.37-21.39,4.16-31.22,8.36-9.97,4.28-19.11,9.93-27.41,16.94-1.94,1.65-3.74,3.43-5.38,5.34v.04c-2.28,2.72-4.54,6.03-6.79,9.94l2.15,1.24s.05-.08.08-.12c2.14-3.72,4.29-6.88,6.46-9.48h0Z"/>
        </g>
        <g id="Symbol_9_0_Layer4_1_FILL">
          <path d="M242.59,120.31v.04c-.17-.5-.51-.91-1.04-1.24-.55-.39-1.16-.61-1.82-.66h-.08c-1.82-.03-3.33.32-4.51,1.04-1.13.66-1.9,1.61-2.32,2.86v-.04c-.79,1.84-.23,4.47,1.66,7.87v.04c.27.45.54.89.83,1.33l.62,1.08c3.89-5,6.06-8.09,6.5-9.28.47-1.27.52-2.28.17-3.02M240.68,120.94v.04c.16.43.1,1.03-.17,1.78h0c-.59,1.59-2.05,3.99-4.39,7.21-.07-.29-.14-.48-.21-.58h0c-1.56-2.81-2.08-4.96-1.57-6.46h.04c.67-1.66,2.4-2.49,5.18-2.48.58.05.96.21,1.12.5M260.43,115.18h.04c-1.86,1.43-3.55,3.26-5.05,5.47-1.84,2.76-3.11,5.83-3.81,9.19l-.33,1.61,1.49-.7c4.83-2.13,8.9-4.58,12.22-7.37,2.93-2.4,4.33-4.75,4.22-7.04-.08-1.85-.83-2.93-2.24-3.23-1.47-.53-3.37-.03-5.71,1.49-.27.19-.55.38-.83.58M261.1,116.67c.17-.17.39-.33.66-.5.88-.58,1.57-.94,2.07-1.08.5-.14,1.02-.12,1.57.04l.04.04h.04c.91.28,1.21,1.27.91,2.98-.8,1.52-1.99,2.98-3.56,4.39-2.59,2.29-5.8,4.4-9.61,6.34.96-2.75,2.14-5.19,3.56-7.33,1.55-2.24,2.97-3.86,4.27-4.89h.04M298.49,115.14h-.04c-.47.03-.97.15-1.49.37-1.08.36-2.24,1.05-3.48,2.07-2.02,1.63-3.42,3.41-4.22,5.34v.04c-.99,2.37-.92,4.71.21,7l.46.99.83-.75c1.79-1.52,3.34-2.9,4.64-4.14,3.31-3.17,5.18-5.63,5.59-7.37l-.04.04c.36-1.19.35-2.06-.04-2.61-.33-.77-1.13-1.1-2.4-.99M298.12,116.79l.54.17c.3.25.37.68.21,1.28v.04c-.36,1.24-1.04,2.55-2.03,3.93-1.52,2.13-3.62,4.13-6.29,6-.5-1.55-.41-3.09.25-4.64.88-2.1,1.96-3.67,3.23-4.72,1.08-.91,2.07-1.5,2.98-1.78h.04c.33-.14.69-.23,1.08-.29Z"/>
        </g>
        <g mask="url(#mask)">
          <g id="Symbol_9_0_Layer3_0_MEMBER_0_FILL">
            <path d="M325.07,66.15l-13.38-9.77c-10.93,3.34-21.86,8.48-32.8,15.45-10.93,6.99-18.76,10.19-23.48,9.61-4.06-.5-8.48-2.82-13.25-6.96-5.49-4.8-9.92-7.81-13.29-9.03-6.32-2.29-12.77-2.19-19.34.29-8.54,6.09-16.01,12.78-22.4,20.08l16.73-5.63c8.09-3.67,14.14-4.89,18.14-3.64,4,1.27,10.25,4.4,18.76,9.4,8.78,4.41,16.27,6.21,22.49,5.38,6.22-.82,14.68-4.6,25.38-11.35,10.7-6.72,22.85-11.33,36.44-13.83Z" fill="#49241b"/>
          </g>
        </g>
        <g id="Symbol_9_0_Layer1_0_FILL">
          <path d="M276.62,46.03h0c-7.31-.79-13.7-.84-19.17-.17-10.99,1.37-21.39,4.16-31.22,8.36-9.97,4.28-19.11,9.93-27.41,16.94-1.94,1.65-3.74,3.43-5.38,5.34v.04c-2.28,2.72-4.54,6.03-6.79,9.94l2.15,1.24s.05-.08.08-.12c2.14-3.72,4.29-6.88,6.46-9.48h0c1.56-1.81,3.25-3.5,5.09-5.05,8.12-6.85,17.05-12.37,26.79-16.56,9.61-4.11,19.78-6.82,30.52-8.16,5.32-.65,11.53-.59,18.63.17,8.27.9,16.26,2.62,23.98,5.18,19.98,6.61,34.3,17.32,42.98,32.13,4.72,8.01,7.01,15.14,6.87,21.41-.08,4.06-1.24,8.03-3.48,11.93-1.88,3.23-4.15,5.89-6.83,7.99-2.32,1.82-5.95,3.46-10.89,4.93-5,1.46-9.48,2.21-13.46,2.24-3.91.03-8.12-.48-12.63-1.53-3.61-.84-7.41-2.02-11.39-3.52l-1.61-.62c-.22-.03-.44.03-.66.17h-.08l-1.12,1.08.04.08c-2.35,2.46-4.6,4.06-6.75,4.8-5.74,2.02-12.31,1.71-19.71-.91-3.7-1.33-6.82-2.84-9.36-4.55-.08.03-1.12.39-3.11,1.08-2.1.69-3.56,1.05-4.39,1.08h0c-2.96.18-5.47-.07-7.54-.75-.22-.09-.44-.17-.66-.25l-.04.17c-.15-.25-.3-.49-.46-.75l-.7.41-.33-.21c-.13.21-.27.41-.41.62-1.82,2.78-4.03,5.27-6.63,7.45-2.76,2.37-5.65,4.11-8.65,5.22-5.52,2.02-10.61,2.04-15.28.08-4.69-2.02-7.51-5.56-8.45-10.64-.75-4.2.29-10.08,3.11-17.64.99-2.68,2.22-5.58,3.69-8.7.19-.5.41-.99.66-1.49.06-.14.12-.26.21-.37.06-.17.12-.33.21-.5-1.1.58-2.65,2.71-4.64,6.38-.3.5-.58.99-.83,1.49-4.42,8.03-6.03,15.13-4.84,21.28,1.08,5.94,4.38,10.09,9.9,12.46h.04c5.19,2.21,10.88,2.19,17.06-.04h.04c3.26-1.19,6.39-3.05,9.4-5.59,1.82-1.52,4-4.09,6.54-7.7l.21.08h.08l.04.04c3.31,1.08,6.11,1.55,8.41,1.41,1.24-.06,2.84-.48,4.8-1.28l2.57-1.2c2.9,1.9,6.32,3.55,10.27,4.93,7.87,2.82,14.47,3.04,19.79.66,2.13-.91,4.75-3.04,7.87-6.38,1.44.55,3.51,1.37,6.21,2.44,2.35.91,4.32,1.55,5.92,1.9,5.16,1.21,9.57,1.81,13.21,1.78,4.06-.03,8.75-.84,14.08-2.44,5.11-1.55,8.94-3.23,11.51-5.05,3.01-2.15,5.76-5.4,8.24-9.73,2.57-4.5,3.89-8.59,3.98-12.26.22-7.23-2.07-14.95-6.87-23.15-4.42-7.59-10.52-14.22-18.3-19.88-7.56-5.49-16.56-9.97-27-13.42-6.46-2.15-14.64-3.77-24.56-4.84Z"/>
        </g>
        <g id="Symbol_9_0_Layer0_0_FILL">
          <path d="M256.04,50.75l-4.06.87c-15.11,9.35-24.78,24.68-28.99,46.01h.25c5.01-20.58,15.94-36.21,32.8-46.87M258.03,48.97l-.58,1.53c18.85,7.21,28.59,26.14,29.19,56.81h.33c.36-31.55-9.29-51-28.94-58.35M265.94,48.35l-1.9.91c35.63,2.2,57.66,15.86,66.09,40.99l.21-.04c-7.66-26.19-29.13-40.14-64.39-41.86Z"/>
        </g>
      </g>
      <g>
        <g id="Layer2_50_MEMBER_1_FILL">
          <path d="M282.46,170.63c-.95-2.71-1.58-5.42-1.86-8.16l-5.51.12c-.39,2.87-1.09,5.6-2.11,8.2,3.31-.8,6.47-.86,9.48-.17Z"/>
        </g>
        <g id="Layer2_50_MEMBER_1_1_STROKES">
          <path d="M272.98,170.81v-.04c3.29-.8,6.48-.85,9.48-.17v.04c-3-.69-6.19-.63-9.48.17ZM275.09,162.61v-.04s5.51-.12,5.51-.12v.04s-5.51.12-5.51.12Z"/>
        </g>
      </g>
      <g>
        <g id="Layer2_50_MEMBER_2_FILL">
          <path d="M215.92,172.08l-3.11-8.61-17.97,10.56v4.55l21.08-6.5Z"/>
        </g>
        <g id="Layer2_50_MEMBER_2_1_STROKES">
          <path d="M194.43,179.14v-5.35l18.61-10.93,3.14,8.7.11-.04.26.79-.88.29h0s-21.24,6.54-21.24,6.54ZM195.26,174.26v3.76l20.13-6.21-2.79-7.74-17.34,10.19Z"/>
        </g>
      </g>
      <g>
        <g id="Layer2_51_FILL">
          <path d="M205.65,212.7c-.03-5.99-1.17-9.68-3.44-11.06-.39-.33-.87-.55-1.45-.66.77,2.24,1.2,5.23,1.28,8.99.11,4.5-.54,7.48-1.95,8.94.75-.03,1.09.91,1.04,2.82-.03,2.07.06,3.19.25,3.35,2.84-2.1,4.27-6.23,4.27-12.38Z" fill="#e5252a"/>
        </g>
        <g id="Layer2_51_1_STROKES">
          <path d="M202.12,226.08l-1.48-2c2.5-1.84,3.76-5.67,3.76-11.38-.02-4.07-.58-7.04-1.64-8.74.29,1.74.47,3.74.52,5.98.12,4.89-.63,8.11-2.29,9.83l-1.79-1.72c.8-.83,1.73-2.9,1.6-8.05-.08-3.61-.49-6.51-1.22-8.61l-.7-2.03,2.11.4c.76.14,1.41.44,1.95.87,2.63,1.67,3.92,5.61,3.95,12.06,0,6.55-1.6,11.05-4.77,13.39Z" fill="#9a1c20"/>
        </g>
      </g>
      <g>
        <g id="Layer2_52_FILL">
          <path d="M205.82,203.01c1.35-1.99,1.95-5.33,1.78-10.02-.19-.36-.52-2.76-.99-7.21-.5-4.47-.75-6.72-.75-6.75-1.49-3.67-3.64-6.51-6.46-8.53-2.37-1.68-4.78-2.54-7.21-2.57-2.21-.06-4.31.37-6.29,1.28-2.15.97-3.95,2.39-5.38,4.27-2.82,3.67-4.06,7.67-3.73,12.01.3,3.84,1.77,7.52,4.39,11.06,2.48,3.31,5.51,5.87,9.07,7.66,3.67,1.85,7.08,2.47,10.23,1.86,2.51-.47,4.29-1.49,5.34-3.06Z" fill="#f8a678"/>
        </g>
        <g id="Layer2_52_1_STROKES">
          <path d="M198.11,207.54c-2.66,0-5.49-.74-8.42-2.22-3.72-1.87-6.91-4.57-9.5-8.02-2.76-3.71-4.31-7.65-4.63-11.7-.35-4.63.98-8.96,3.98-12.86,1.56-2.03,3.53-3.6,5.86-4.64,2.14-.98,4.44-1.45,6.83-1.39,2.66.03,5.32.97,7.89,2.8,3,2.15,5.32,5.2,6.89,9.08l.09.22v.18c.02.22.14,1.32.74,6.67.57,5.38.81,6.56.89,6.82l.1.19v.29c.19,5.01-.47,8.53-1.98,10.76-1.23,1.85-3.3,3.06-6.14,3.59-.85.16-1.71.25-2.6.25ZM191.83,169.17c-1.9,0-3.72.39-5.42,1.17-1.96.88-3.61,2.19-4.91,3.89-2.65,3.45-3.78,7.1-3.47,11.16.28,3.58,1.68,7.08,4.15,10.41,2.35,3.14,5.26,5.59,8.63,7.29,3.4,1.71,6.58,2.3,9.43,1.75,2.17-.4,3.69-1.26,4.54-2.53,1.18-1.74,1.71-4.79,1.58-9.08-.17-.56-.44-2.04-1-7.33-.51-4.55-.67-6.05-.73-6.57-1.39-3.36-3.4-5.99-5.97-7.83-2.15-1.52-4.34-2.31-6.5-2.33-.11,0-.23,0-.34,0ZM208.69,192.4h0s0,0,0,0Z" fill="#be6e35"/>
        </g>
      </g>
      <g id="Layer2_52_MEMBER_0_FILL">
        <path d="M203.99,181.85l6.87,1.2c-4.53-5.97-8.86-9.94-13-11.93l6.13,10.72Z" fill="#f8a678"/>
      </g>
      <g id="Layer2_52_MEMBER_1_FILL">
        <g mask="url(#mask-1)">
          <path d="M203.79,190.48c2.09-2.47,2.86-5.05,2.32-7.73-.58-2.72-2.29-4.73-5.13-6.03-2.92-1.22-6.12-1.38-9.61-.49-3.53.93-6.37,2.66-8.53,5.17-2.05,2.56-2.79,5.17-2.21,7.85.5,2.72,2.18,4.71,5.02,5.96,2.92,1.22,6.14,1.38,9.67.49,3.49-.93,6.32-2.68,8.48-5.23Z" fill="url(#radial-gradient3)"/>
        </g>
      </g>
      <g id="Layer2_52_MEMBER_2_FILL">
        <path d="M201.72,204.37c2.91-.8,5.4-5.21,7.45-13.25.63-.95,1.14-2.25,1.53-3.89l.66-4.76-6.96-1.08-2.69,21.08c.06,0,.06.64,0,1.9Z" fill="#f8a678"/>
      </g>
      <g id="Layer2_52_MEMBER_3_FILL">
        <path d="M199.77,192.41c0,1.3-.59,2.47-1.78,3.52-1.19,1.05-2.59,1.66-4.22,1.82-1.82.14-3.51-.33-5.05-1.41,2.1,2.07,4.43,2.83,7,2.28,2.13-.47,3.71-1.53,4.76-3.19h.04c.66-1.02.91-2.13.75-3.31-.19-1.68-1.27-3.16-3.23-4.43.25-.61.33-1.46.25-2.57-.11-2.07-.88-4.07-2.32-6-2.26-3.12-5.53-4.27-9.81-3.44,4.06,0,7.09,1.6,9.11,4.8,1.6,2.54,2.14,4.71,1.61,6.5-2.1-.63-3.84-.57-5.22.21-.72.41-1.08.94-1.08,1.57,0,.36.23.7.7,1.04.44.33.92.54,1.45.62.72.14,1.49.1,2.32-.12,1.08-.28,1.9-.84,2.48-1.7,1.52,1.08,2.26,2.35,2.24,3.81M193.35,189.59c-1.24-.06-1.74-.39-1.49-.99.22-.63.77-1.01,1.66-1.12.88-.11,1.9.04,3.06.46-.91,1.13-1.99,1.68-3.23,1.66Z" fill="#be6e35"/>
      </g>
      <g>
        <g id="Layer2_53_FILL">
          <path d="M199.4,202.51l.12-.41c-1.71-1.21-3.33-.22-4.84,2.98-1.3,3.56-2.02,6.67-2.15,9.32-.17,2.98.39,5.7,1.66,8.16,1.57,2.43,3.35,3.46,5.34,3.11,1.24-.19,2.36-.83,3.35-1.9-.63.03-1.1-.75-1.41-2.32-.39-1.85-.66-2.87-.83-3.06-.41.72-.94.95-1.57.7-.69-.33-1.17-1.23-1.45-2.69-.75-4.64-.15-9.26,1.78-13.87Z" fill="#e5252a"/>
        </g>
        <g id="Layer2_53_1_STROKES">
          <path d="M198.72,226.98c-2.09,0-3.97-1.26-5.59-3.75l-.06-.11c-1.37-2.65-1.97-5.61-1.79-8.8.14-2.75.89-6.01,2.23-9.67l.04-.11c1.13-2.38,2.37-3.72,3.78-4.09.67-.17,1.72-.21,2.9.63l.73.52-.43,1.39c-1.83,4.37-2.4,8.81-1.7,13.19.21,1.09.49,1.52.65,1.68.02-.03.05-.07.07-.12l2.15,1.24c-.72,1.25-1.89,1.72-3.1,1.24l-.09-.04c-1.08-.52-1.77-1.69-2.13-3.58-.74-4.6-.23-9.2,1.52-13.74-.33.11-1.09.6-2.09,2.68-1.24,3.41-1.93,6.4-2.06,8.9-.15,2.72.35,5.24,1.49,7.47,1.89,2.89,3.51,2.61,4.05,2.51,1-.16,1.86-.65,2.66-1.52l1.82,1.69c-1.18,1.28-2.55,2.05-4.08,2.29-.33.06-.66.09-.99.09Z" fill="#9a1c20"/>
        </g>
      </g>
      <g>
        <g>
          <g>
            <path d="M218.2,163.95c0,7.18,2.21,13.35,6.63,18.51.28.36.55.68.83.95.14.17.28.33.41.5l.5.5c.52.5,1.02.97,1.49,1.41,4.44,3.81,9.61,5.71,15.49,5.71,7.01,0,12.99-2.71,17.93-8.12,4.97-5.36,7.45-11.84,7.45-19.46s-2.48-14.19-7.45-19.54c-4.94-5.38-10.92-8.07-17.93-8.07s-12.95,2.69-17.89,8.07c-4.97,5.36-7.45,11.87-7.45,19.54Z" fill="#fff"/>
            <g>
              <path d="M243.34,150.5c-2.71,0-5.02,1.3-6.96,3.89-1.85,2.62-2.79,5.76-2.82,9.4,0,3.67.9,6.8,2.69,9.4,1.93,2.59,4.24,3.89,6.92,3.89s4.94-1.3,6.79-3.89c1.93-2.59,2.9-5.73,2.9-9.4.06-3.64-.88-6.78-2.82-9.4-1.82-2.59-4.06-3.89-6.71-3.89Z"/>
              <path d="M244.37,162.38c-.99,0-1.85.44-2.57,1.33-.63.97-.95,2.07-.95,3.31s.32,2.35.95,3.23c.72.94,1.57,1.41,2.57,1.41s1.89-.47,2.61-1.41c.66-.88.99-1.96.99-3.23s-.33-2.35-.99-3.31c-.72-.88-1.59-1.33-2.61-1.33M248.14,156.87c-.44,0-.81.18-1.12.54-.22.44-.33.88-.33,1.33,0,.52.11,1.01.33,1.45.3.36.68.54,1.12.54.41,0,.77-.18,1.08-.54.28-.44.41-.92.41-1.45,0-.44-.14-.88-.41-1.33-.3-.36-.66-.54-1.08-.54Z" fill="#fff"/>
            </g>
            <g>
              <path d="M243.53,191.37h3.35c3.87-.13,4.26-1.05,7.57-2.55,3.46-1.59,5.91-1.58,7.93-4.41,1.64-2.37,2.88-.09,3.63-2.63.58-2.03-.06,1.44,0,0,0-1.66,1.52-2.38.97-4-.98-1.15-3.22-2.11-6.71-2.88-3.55-.86-8.08-1.32-13.59-1.4-5.54-.05-10.69.26-15.45.93-4.76.68-8.14,1.63-10.13,2.88-.92.89-1.5,1.97-1.73,3.23-.32,1.33.76-.27,1.17,1.9.78,4.29,1.69-.9,4.14,1.97,2.25,2.65,5.11,4.04,8.81,5.47,3.43,1.22,6.17,1.6,10.04,1.49Z" fill="#f8a67a"/>
              <path d="M267.61,180.82c-.68,0-1.24-.55-1.24-1.24,0-.47-.23-.92-.69-1.38-2.68-2.64-12.34-4.39-23.51-4.27-11.38.13-16.73,1.49-22.01,5.62-.54.42-1.32.33-1.74-.21-.42-.54-.33-1.32.21-1.74,6.45-5.05,12.98-6.03,23.51-6.15,3.34-.04,20.25.03,25.28,4.98.95.93,1.43,1.99,1.43,3.14,0,.69-.55,1.24-1.24,1.25h0Z" fill="#aa602f"/>
            </g>
            <path d="M265.57,140.85c-6.07-6.32-13.39-9.48-21.95-9.48s-15.83,3.16-21.91,9.48c-6.05,6.32-9.07,13.97-9.07,22.94,0,1.9.14,3.74.41,5.51.36,2.26.91,4.42,1.66,6.46,1.05,2.73,2.46,5.3,4.22,7.7.41.5.81.99,1.2,1.49.52.58,1.05,1.16,1.57,1.74,6.07,6.35,13.38,9.52,21.91,9.52s15.87-3.17,21.95-9.52c2.21-2.29,4-4.78,5.38-7.45,1.02-1.93,1.82-3.98,2.4-6.13.83-2.93,1.24-6.03,1.24-9.32,0-8.97-3.01-16.62-9.03-22.94M224.82,182.46c-4.42-5.16-6.63-11.33-6.63-18.51,0-7.67,2.48-14.19,7.45-19.54,4.94-5.38,10.9-8.07,17.89-8.07s12.99,2.69,17.93,8.07c4.97,5.36,7.45,11.87,7.45,19.54s-2.48,14.11-7.45,19.46c-4.94,5.41-10.92,8.12-17.93,8.12-5.88,0-11.04-1.9-15.49-5.71-.47-.44-.97-.91-1.49-1.41l-.5-.5c-.14-.17-.28-.33-.41-.5-.28-.28-.55-.59-.83-.95Z"/>
          </g>
          <path d="M243.62,196.63c-8.61,0-16.08-3.25-22.2-9.65l-1.58-1.75c-.4-.52-.8-1.01-1.21-1.5-1.8-2.44-3.24-5.07-4.29-7.82-.75-2.06-1.32-4.26-1.68-6.54-.28-1.78-.42-3.66-.42-5.57,0-9.04,3.09-16.86,9.18-23.23,6.13-6.38,13.6-9.61,22.2-9.61s16.12,3.23,22.25,9.61c6.07,6.37,9.14,14.19,9.14,23.23,0,3.31-.42,6.48-1.26,9.43-.58,2.17-1.4,4.26-2.43,6.21-1.39,2.7-3.23,5.24-5.45,7.55-6.13,6.4-13.61,9.65-22.25,9.65ZM243.62,131.78c-8.37,0-15.64,3.15-21.61,9.36-5.94,6.21-8.95,13.83-8.95,22.65,0,1.87.14,3.7.41,5.44.35,2.23.9,4.38,1.64,6.38,1.03,2.68,2.43,5.24,4.17,7.6.4.48.81.98,1.19,1.48l1.55,1.72c5.96,6.23,13.22,9.39,21.6,9.39s15.68-3.16,21.65-9.4c2.17-2.25,3.96-4.73,5.31-7.36,1-1.9,1.8-3.93,2.37-6.05.82-2.88,1.23-5.98,1.23-9.21,0-8.82-3-16.44-8.91-22.66-5.96-6.21-13.25-9.35-21.65-9.35ZM243.54,191.95c-5.95,0-11.26-1.96-15.76-5.81l-2.01-1.93-.44-.53c-.26-.26-.55-.59-.84-.96-4.45-5.2-6.71-11.52-6.71-18.76,0-7.75,2.55-14.42,7.56-19.83,5-5.45,11.12-8.21,18.19-8.21s13.24,2.76,18.24,8.21c5.02,5.41,7.56,12.08,7.56,19.82s-2.55,14.33-7.56,19.74c-5,5.47-11.13,8.25-18.23,8.25ZM243.54,136.75c-6.83,0-12.75,2.67-17.58,7.94-4.87,5.25-7.34,11.73-7.34,19.26,0,7.04,2.2,13.18,6.53,18.24.28.36.54.67.81.93l.58.66.33.33,1.48,1.4c4.33,3.71,9.45,5.6,15.2,5.6,6.86,0,12.79-2.69,17.62-7.98,4.87-5.25,7.35-11.71,7.35-19.18s-2.47-14.01-7.34-19.26c-4.84-5.27-10.77-7.94-17.63-7.94Z"/>
        </g>
        <g>
          <g>
            <path d="M330.04,144.41c-4.94-5.38-10.9-8.07-17.89-8.07s-12.99,2.69-17.93,8.07c-4.97,5.36-7.45,11.87-7.45,19.54s2.48,14.11,7.45,19.46c4.94,5.41,10.92,8.12,17.93,8.12,5.88,0,11.04-1.9,15.49-5.71.47-.44.97-.91,1.49-1.41l.5-.5c.14-.17.28-.33.41-.5.28-.28.55-.59.83-.95,4.42-5.16,6.63-11.33,6.63-18.51,0-7.67-2.48-14.19-7.45-19.54Z" fill="#fff"/>
            <g>
              <path d="M305.65,154.39c-1.93,2.62-2.87,5.76-2.82,9.4,0,3.67.97,6.8,2.9,9.4,1.85,2.59,4.11,3.89,6.79,3.89s4.98-1.3,6.92-3.89c1.79-2.59,2.69-5.73,2.69-9.4-.03-3.64-.97-6.78-2.82-9.4-1.93-2.59-4.25-3.89-6.96-3.89s-4.89,1.3-6.71,3.89Z"/>
              <path d="M311.32,162.38c-1.02,0-1.89.44-2.61,1.33-.66.97-.99,2.07-.99,3.31s.33,2.35.99,3.23c.72.94,1.59,1.41,2.61,1.41s1.85-.47,2.57-1.41c.64-.88.95-1.96.95-3.23s-.32-2.35-.95-3.31c-.72-.88-1.57-1.33-2.57-1.33M306.47,157.41c-.28.44-.41.88-.41,1.33,0,.52.14,1.01.41,1.45.3.36.66.54,1.08.54.44,0,.81-.18,1.12-.54.22-.44.33-.92.33-1.45,0-.44-.11-.88-.33-1.33-.3-.36-.68-.54-1.12-.54-.41,0-.77.18-1.08.54Z" fill="#fff"/>
            </g>
            <path d="M312.16,191.37h-3.35c-3.87-.13-4.26-1.05-7.57-2.55-3.46-1.59-5.91-1.58-7.93-4.41-1.64-2.37-2.88-.09-3.63-2.63-.58-2.03.06,1.44,0,0,0-1.66-1.52-2.38-.97-4,.98-1.15,3.22-2.11,6.71-2.88,3.55-.86,8.08-1.32,13.59-1.4,5.54-.05,10.69.26,15.45.93,4.76.68,8.14,1.63,10.13,2.88.92.89,1.5,1.97,1.73,3.23.32,1.33-.76-.27-1.17,1.9-.78,4.29-1.69-.9-4.14,1.97-2.25,2.65-5.11,4.04-8.81,5.47-3.43,1.22-6.17,1.6-10.04,1.49Z" fill="#f8a67a"/>
            <path d="M288.08,180.82h0c-.69,0-1.24-.56-1.24-1.25,0-1.15.49-2.21,1.43-3.14,5.03-4.96,21.95-5.02,25.28-4.98,10.53.12,17.06,1.1,23.51,6.15.54.42.64,1.2.21,1.74-.42.54-1.21.64-1.74.21-5.28-4.13-10.63-5.5-22.01-5.62-11.19-.13-20.83,1.63-23.51,4.27-.46.46-.69.91-.69,1.38,0,.68-.56,1.24-1.24,1.24Z" fill="#aa602f"/>
            <path d="M290.12,140.85c-6.02,6.32-9.03,13.97-9.03,22.94,0,3.29.41,6.39,1.24,9.32.58,2.15,1.38,4.2,2.4,6.13,1.38,2.68,3.17,5.16,5.38,7.45,6.07,6.35,13.39,9.52,21.95,9.52s15.83-3.17,21.91-9.52c.52-.58,1.05-1.16,1.57-1.74.39-.5.79-.99,1.2-1.49,1.77-2.4,3.17-4.97,4.22-7.7.75-2.04,1.3-4.2,1.66-6.46.28-1.77.41-3.6.41-5.51,0-8.97-3.02-16.62-9.07-22.94-6.07-6.32-13.38-9.48-21.91-9.48s-15.87,3.16-21.95,9.48M330.04,183.42c-.14.17-.28.33-.41.5l-.5.5c-.52.5-1.02.97-1.49,1.41-4.44,3.81-9.61,5.71-15.49,5.71-7.01,0-12.99-2.71-17.93-8.12-4.97-5.36-7.45-11.84-7.45-19.46s2.48-14.19,7.45-19.54c4.94-5.38,10.92-8.07,17.93-8.07s12.95,2.69,17.89,8.07c4.97,5.36,7.45,11.87,7.45,19.54,0,7.18-2.21,13.35-6.63,18.51-.28.36-.55.68-.83.95Z"/>
          </g>
          <path d="M312.07,196.63c-8.64,0-16.12-3.25-22.25-9.65-2.22-2.31-4.06-4.85-5.45-7.55-1.03-1.95-1.85-4.04-2.43-6.21-.83-2.94-1.26-6.12-1.26-9.42,0-9.04,3.08-16.86,9.14-23.23h0c6.13-6.38,13.61-9.61,22.25-9.61s16.08,3.23,22.2,9.61c6.09,6.37,9.18,14.19,9.18,23.23,0,1.92-.14,3.79-.42,5.57-.36,2.28-.93,4.48-1.68,6.54-1.06,2.76-2.5,5.39-4.28,7.81-.43.51-.82,1.01-1.21,1.5l-1.59,1.76c-6.13,6.41-13.6,9.66-22.21,9.66ZM290.42,141.13c-5.91,6.21-8.91,13.83-8.91,22.66,0,3.23.41,6.33,1.23,9.2.57,2.12,1.37,4.15,2.37,6.05,1.36,2.63,3.14,5.11,5.32,7.36,5.96,6.24,13.25,9.4,21.65,9.4s15.64-3.16,21.61-9.4l1.57-1.73c.37-.48.77-.98,1.19-1.48,1.72-2.34,3.13-4.9,4.16-7.59.73-2,1.28-4.15,1.63-6.38.27-1.74.41-3.57.41-5.44,0-8.82-3.01-16.44-8.95-22.65-5.96-6.21-13.23-9.35-21.61-9.35s-15.68,3.15-21.65,9.35h0ZM312.15,191.95c-7.1,0-13.24-2.78-18.24-8.25-5.02-5.41-7.56-12.05-7.56-19.74s2.55-14.42,7.56-19.83c5-5.45,11.13-8.21,18.23-8.21s13.19,2.76,18.19,8.21c5.02,5.41,7.56,12.08,7.56,19.82,0,7.25-2.26,13.56-6.72,18.78-.27.35-.56.69-.85.98l-.39.47-.52.52c-.53.51-1.03.98-1.5,1.42-4.51,3.87-9.82,5.83-15.77,5.83ZM312.15,136.75c-6.86,0-12.79,2.67-17.63,7.94-4.87,5.25-7.34,11.73-7.34,19.26s2.47,13.93,7.34,19.18c4.84,5.3,10.77,7.98,17.63,7.98,5.75,0,10.87-1.89,15.22-5.62.46-.43.95-.9,1.48-1.39l.88-.96c.29-.29.56-.6.82-.94,4.34-5.08,6.54-11.22,6.54-18.26,0-7.53-2.47-14.01-7.34-19.26h0c-4.84-5.27-10.75-7.94-17.58-7.94Z"/>
        </g>
      </g>
      <g>
        <g id="Symbol_15_0_Layer3_0_FILL">
          <path d="M282.21,178v-.17l-1.12,9.77c5.22,1.52,9.33,1.53,12.34.04,2.4-1.33,3.74-3.24,4.02-5.76.22-2.07-.66-3.35-2.65-3.85-2.51-.61-6.71-.62-12.59-.04Z" fill="url(#radial-gradient4)"/>
          <path d="M282.21,177.83v.17c5.88-.58,10.08-.57,12.59.04,1.99.5,2.87,1.78,2.65,3.85-.28,2.51-1.61,4.43-4.02,5.76-3.01,1.49-7.12,1.48-12.34-.04-.06,0-.11-.01-.17-.04l-.5-.04v.04c6.07,3.31,10.79,4.07,14.16,2.28,3.2-1.74,4.98-4.29,5.34-7.66v-.04c.39-3.48-1.12-5.65-4.51-6.5-2.76-.72-7.22-.03-13.38,2.07l.17.12Z" fill="#be6e35"/>
        </g>
        <g mask="url(#mask-3)">
          <g id="Symbol_15_0_Layer2_0_FILL">
            <g mask="url(#mask-4)">
              <path d="M304.02,178.55c-.47-1.98-1.87-3.44-4.2-4.38-2.39-.89-5.02-1-7.88-.35-2.89.68-5.22,1.93-6.99,3.76-1.68,1.86-2.29,3.76-1.81,5.71.41,1.98,1.79,3.42,4.12,4.34,2.39.89,5.03,1,7.92.35,2.86-.68,5.18-1.95,6.95-3.81,1.71-1.8,2.35-3.67,1.9-5.62Z" fill="url(#radial-gradient6)"/>
            </g>
          </g>
        </g>
        <g id="Symbol_15_0_Layer0_0_FILL">
          <path d="M299.94,182.14c.39-3.48-1.12-5.65-4.51-6.5-2.76-.72-7.22-.03-13.38,2.07l.17.12v.17c5.88-.58,10.08-.57,12.59.04,1.99.5,2.87,1.78,2.65,3.85-.28,2.51-1.61,4.43-4.02,5.76-3.01,1.49-7.12,1.48-12.34-.04-.06,0-.11-.01-.17-.04l-.5-.04v.04c6.07,3.31,10.79,4.07,14.16,2.28,3.2-1.74,4.98-4.29,5.34-7.66v-.04Z" fill="#be6e35"/>
        </g>
      </g>
    </g>
    <g>
      <g>
        <path d="M251.29,214.94c.98,4.87,1.98,9.38,3.85,13.75,3.68,8.6,10.12,14.89,17.29,14.47,2.04-.12,4.04-.77,5.98-1.78.08.04,10-6.15,16.51-16.5,2.33-3.7,10.25-17.09,10.1-20.23-.01-.3-.63-.32-.84-.19-.97.58-6.79,6.99-9.45,8.41-4.67,2.48-9.71,3.75-14.69,3.61-4.93-.13-10.02-1.25-14.77-3.05-2.38-.9-4.72-1.94-6.99-3.32-2.31-1.4-6.68-5.82-6.99-5.34-1.59,2.39-.54,7.42.02,10.18Z" fill="#c5763f"/>
        <path d="M264.36,215.49c4.92,1.88,10.05,2.77,15.13,3.07,4.49.26,9.4-.8,13.63-2.96,2.09-1.06,4.14-2.21,6.1-3.71,1.34-1.03,2.34-2.7,3.45-4.11-.08.2-.16.39-.24.59-.62,1.2-1.21,2.56-1.8,3.82-.57,1.04-1.15,2.09-1.74,3.13-1.94,3.04-4.03,5.93-6.03,8.89-1.12,1.67-2.28,3.23-3.46,4.71-6.7,7.16-10.79,10.51-14.53,11.43-5.1,1.25-8.9-.81-13.3-5.22-.88-1.06-2.51-3.33-3.28-4.56-2.99-6.11-6.31-15.08-5.59-22.15.73.79,2.9,2.59,3.7,3.18,2.49,1.84,5.26,2.87,7.95,3.9Z" fill="#2b1010"/>
      </g>
      <g clip-path="url(#clippath)">
        <g>
          <path d="M263.91,241.09c-1.46-1.5-2.65-.68-2.78-3.25-.16-3.11,1.32-6.11,3.31-7.4,1.99-1.29,4.35-1.03,6.36.18.27.16.54.34.82.35.38.02.74-.25,1.08-.49,2.34-1.68,5.06-2.65,7.6-1.7,2.54.95,4.75,4.18,4.75,7.92,0,3.06-1.44,2.75-3.25,4.37-1.81,1.62-3.96,1.25-6.08,1.74-3.77.87-8.6,1.59-11.82-1.72Z" fill="#ee4237"/>
          <path d="M270.39,243.95c-2.5,0-4.89-.63-6.77-2.57h0c-.48-.49-.92-.71-1.32-.9-.92-.45-1.49-.85-1.58-2.61-.16-3.13,1.28-6.32,3.5-7.77,2-1.29,4.47-1.23,6.8.17.27.16.47.29.63.3.21,0,.5-.19.78-.39,2.01-1.45,5-2.91,8.02-1.78,2.86,1.07,5.02,4.64,5.02,8.31,0,2.42-.89,2.97-2.01,3.68-.42.26-.89.56-1.38,1-1.37,1.23-2.92,1.4-4.42,1.56-.61.07-1.23.13-1.84.27-1.77.41-3.63.74-5.44.74ZM264.21,240.8c2.96,3.05,7.44,2.52,11.43,1.61.65-.15,1.3-.22,1.93-.29,1.43-.16,2.78-.3,3.96-1.36.54-.49,1.04-.8,1.49-1.08,1.05-.66,1.62-1.02,1.62-2.98,0-3.8-2.31-6.72-4.49-7.53-2.68-1-5.4.35-7.21,1.65-.41.3-.82.61-1.34.57-.37-.02-.68-.21-.95-.37-2.11-1.27-4.27-1.34-5.99-.22-1.96,1.27-3.27,4.22-3.12,7.03.07,1.4.42,1.57,1.12,1.91.43.21.97.48,1.55,1.07h0Z" fill="#be2227"/>
        </g>
      </g>
    </g>
  </g>
</svg>