<?xml version="1.0" encoding="UTF-8"?>
<svg id="Layer_1" xmlns="http://www.w3.org/2000/svg" xmlns:xlink="http://www.w3.org/1999/xlink" version="1.1" viewBox="0 0 100 100">
  <!-- Generator: Adobe Illustrator 29.3.1, SVG Export Plug-In . SVG Version: 2.1.0 Build 151)  -->
  <defs>
    <style>
      .st0 {
        fill: none;
      }

      .st1 {
        fill: #fff;
      }

      .st2 {
        opacity: .3;
      }

      .st3 {
        clip-path: url(#clippath);
      }
    </style>
    <clipPath id="clippath">
      <circle class="st0" cx="50" cy="50" r="50"/>
    </clipPath>
  </defs>
  <g class="st3">
    <g class="st2">
      <rect class="st1" x="-26.1" y="3.9" width="103.2" height="41.2" transform="translate(-9.9 25.2) rotate(-45)"/>
    </g>
    <g class="st2">
      <rect class="st1" x="3.4" y="44" width="103.2" height="20" transform="translate(-22.1 54.8) rotate(-45)"/>
    </g>
    <g>
      <path class="st1" d="M88.3,36.3c-3.1,0-5.7,2.6-5.7,5.7s.4,2.4,1.1,3.4c-.8.5-2,1.3-3.1,1.6-2.2.8-4.6,1.1-7,1.1-10.9,0-19.9-7.6-22.2-17.8,2.4-.6,4.2-2.9,4.2-5.5s-2.6-5.7-5.7-5.7-5.7,2.6-5.7,5.7,1.8,4.9,4.2,5.5c-2.2,10.2-11.3,17.8-22.2,17.8s-4.8-.3-7-1.1c-1-.4-2.2-1.1-3.1-1.6.7-.9,1.1-2.1,1.1-3.4,0-3.1-2.6-5.7-5.7-5.7s-5.7,2.6-5.7,5.7,2.6,5.7,5.7,5.7,1.4-.1,2-.4l12.1,27.4h48.5l12.1-27.4c.6.2,1.3.4,2,.4,3.1,0,5.7-2.6,5.7-5.7s-2.6-5.7-5.7-5.7Z"/>
      <path class="st1" d="M26.3,75.8l.9,3.8c.2.8.9,1.3,1.7,1.3h42.4c.8,0,1.5-.5,1.7-1.3l.9-3.8H26.3Z"/>
    </g>
  </g>
</svg>