<?xml version="1.0" standalone="no"?>
<!DOCTYPE svg PUBLIC "-//W3C//DTD SVG 20010904//EN"
 "http://www.w3.org/TR/2001/REC-SVG-20010904/DTD/svg10.dtd">
<svg version="1.0" xmlns="http://www.w3.org/2000/svg"
 width="2000.000000pt" height="2000.000000pt" viewBox="0 0 2000.000000 2000.000000"
 preserveAspectRatio="xMidYMid meet">

<g transform="translate(0.000000,2000.000000) scale(0.100000,-0.100000)"
fill="#000000" stroke="none">
<path d="M10525 18194 c-338 -26 -497 -46 -734 -95 -1126 -228 -2288 -887
-3288 -1863 -90 -87 -163 -156 -163 -152 0 3 33 73 74 154 149 299 206 461
206 591 0 123 -36 164 -145 165 -50 0 -72 -6 -130 -36 -180 -92 -478 -368
-749 -693 -290 -348 -534 -721 -735 -1125 -151 -303 -249 -559 -323 -842 l-33
-126 -60 45 c-227 170 -570 327 -862 394 -125 28 -328 36 -416 15 -109 -26
-175 -62 -249 -137 -74 -75 -95 -121 -79 -177 54 -188 452 -387 1056 -527 88
-20 162 -38 163 -40 2 -2 -5 -8 -16 -14 -28 -15 -250 -256 -343 -373 -172
-216 -296 -409 -425 -663 -257 -508 -409 -1065 -455 -1665 -13 -172 -6 -664
11 -815 31 -270 108 -664 186 -942 137 -496 335 -934 482 -1066 120 -107 234
20 234 260 l0 76 73 -139 c67 -129 122 -224 257 -447 136 -226 340 -469 668
-798 383 -384 668 -609 1036 -817 293 -167 710 -334 1053 -423 293 -76 440
-76 522 -2 61 55 68 106 33 231 -5 16 -3 21 7 18 8 -3 108 -13 222 -22 l209
-17 136 -84 c160 -99 524 -281 697 -349 869 -340 1706 -415 2645 -238 177 33
210 41 435 107 594 174 1289 492 1630 745 145 108 425 339 425 351 0 4 -29 33
-64 64 l-63 56 -94 -78 c-202 -168 -398 -307 -545 -388 -809 -442 -1560 -680
-2349 -744 -179 -15 -656 -6 -825 16 -540 68 -1068 227 -1575 475 -543 266
-1043 650 -1417 1090 l-106 124 58 53 c63 57 130 142 130 164 0 8 -9 25 -20
39 l-19 25 -78 -79 c-80 -81 -131 -118 -245 -180 -201 -108 -419 -127 -697
-60 -227 54 -471 204 -694 428 -89 88 -74 59 25 -49 26 -29 48 -56 48 -60 0
-11 -88 43 -145 88 -27 22 -49 43 -47 48 1 5 -4 8 -10 7 -7 -2 -12 3 -10 10 1
6 -4 11 -10 10 -7 -2 -12 3 -10 10 1 8 -2 11 -7 8 -13 -8 -103 114 -97 131 3
8 1 11 -4 8 -12 -8 -54 81 -45 95 3 6 2 10 -3 10 -12 0 -36 95 -28 109 4 5 2
12 -4 16 -12 7 -14 105 -2 105 4 0 6 16 4 36 -3 20 -1 34 4 31 5 -3 10 9 10
26 4 88 43 273 74 348 100 247 348 435 657 498 295 60 640 -22 860 -207 27
-22 77 -54 113 -72 36 -18 67 -36 68 -41 2 -5 10 -9 18 -9 8 0 14 -4 14 -10 0
-5 4 -10 10 -10 10 0 37 -20 71 -52 17 -16 20 -15 60 30 104 119 198 289 245
447 25 82 27 105 28 262 l1 173 23 0 c34 0 78 26 105 62 40 53 96 175 123 267
3 10 7 11 18 2 12 -10 15 1 21 66 3 43 14 123 23 178 24 143 24 514 -1 640
-129 652 -517 1303 -1087 1822 -71 65 -126 121 -122 124 9 8 325 67 637 119
237 40 912 140 940 140 12 0 15 -14 15 -59 l0 -58 57 -12 c31 -6 60 -11 63
-11 4 0 29 38 55 85 32 56 55 87 69 90 33 7 655 82 951 114 165 18 383 34 560
41 840 32 1402 75 1566 121 154 43 219 98 219 188 0 68 -19 110 -76 171 -169
181 -619 330 -1324 440 -135 21 -167 29 -140 34 161 29 957 46 1275 27 163 -9
547 -41 551 -45 1 0 10 -82 19 -181 10 -99 21 -184 25 -188 4 -4 36 36 71 90
81 124 187 233 226 233 72 0 632 -108 909 -174 84 -21 99 -28 175 -88 46 -36
121 -100 167 -142 l83 -77 52 37 c29 21 54 39 56 41 3 2 -5 24 -17 48 -16 33
-18 45 -9 45 18 0 466 -138 496 -153 22 -11 51 -106 308 -1002 156 -544 297
-1042 313 -1105 81 -319 105 -419 170 -707 170 -761 226 -1160 216 -1537 -11
-374 -38 -595 -111 -886 -105 -415 -288 -809 -507 -1089 l-50 -63 53 -55 54
-54 28 33 c46 55 170 247 235 363 155 280 285 655 351 1010 56 303 82 701 63
975 -18 258 -81 682 -142 955 -93 415 -325 1311 -556 2144 -145 525 -262 956
-259 959 13 14 673 -238 1064 -407 91 -39 166 -69 169 -67 11 12 -37 512 -74
766 -180 1250 -650 2280 -1384 3034 -688 707 -1526 1103 -2565 1212 -135 14
-588 26 -690 18z m-5220 -10674 c10 -11 16 -20 13 -20 -3 0 -13 9 -23 20 -10
11 -16 20 -13 20 3 0 13 -9 23 -20z"/>
<path d="M12485 13483 c-266 -57 -489 -228 -620 -476 -137 -259 -200 -603
-177 -970 35 -558 139 -953 292 -1108 30 -31 64 -61 74 -66 18 -10 17 -13 -16
-54 -56 -70 -55 -74 8 -32 194 132 371 169 461 97 53 -43 100 -107 115 -157
20 -71 15 -166 -12 -222 -30 -64 -121 -155 -186 -188 -157 -79 -367 -76 -588
9 -102 39 -96 38 -96 20 0 -15 75 -68 147 -105 184 -93 451 -99 631 -14 172
81 287 305 250 485 l-15 68 31 4 c329 49 572 122 821 246 292 144 460 332 472
525 6 83 -18 275 -53 435 -127 578 -498 1167 -870 1383 -82 48 -225 103 -316
121 -96 20 -260 19 -353 -1z m347 -207 c75 -14 233 -70 243 -86 3 -4 -17 -22
-44 -40 -116 -74 -176 -214 -175 -410 3 -531 514 -969 846 -725 46 34 118 127
118 152 0 7 4 13 10 13 24 0 119 -365 141 -542 11 -98 11 -98 -17 -155 -35
-72 -142 -181 -248 -252 -216 -146 -597 -278 -929 -321 l-88 -12 -54 52 c-127
119 -260 129 -414 30 l-64 -41 -45 23 c-109 56 -196 276 -257 647 -56 344 -56
573 1 849 45 218 109 370 216 514 180 243 471 359 760 304z m309 -432 c17 -8
43 -36 60 -62 59 -93 30 -194 -55 -194 -48 0 -79 22 -112 77 -22 39 -26 54
-22 102 7 85 57 115 129 77z m341 -33 c14 -5 58 -59 107 -131 l84 -122 -6 -58
c-6 -68 -29 -108 -74 -126 -70 -30 -144 -5 -210 70 -109 124 -109 314 1 362
37 16 66 17 98 5z"/>
<path d="M9072 12709 c-92 -12 -208 -44 -300 -82 -208 -88 -404 -272 -530
-497 -70 -125 -155 -385 -182 -555 -33 -207 -31 -528 6 -828 55 -457 188 -778
357 -864 146 -74 292 -98 546 -90 216 7 377 30 608 87 620 154 1006 399 1103
699 22 69 22 76 11 214 -38 448 -180 852 -431 1229 -243 367 -481 562 -793
652 -144 42 -263 52 -395 35z m299 -219 c78 -15 159 -39 159 -48 0 -5 -17 -14
-37 -21 -302 -108 -388 -584 -180 -996 107 -214 272 -377 458 -452 284 -115
550 36 613 349 9 42 16 87 17 100 0 28 46 -85 95 -237 42 -129 69 -258 84
-409 13 -132 4 -170 -69 -266 -180 -239 -644 -458 -1171 -554 -379 -69 -687
-59 -858 28 -181 92 -302 533 -302 1106 0 270 21 427 82 620 103 324 288 560
534 683 70 35 224 91 274 100 51 9 249 7 301 -3z m181 -465 c23 -15 47 -45 63
-80 23 -46 27 -65 23 -112 -4 -48 -10 -61 -37 -85 -37 -33 -58 -35 -111 -8
-99 50 -143 218 -75 286 33 33 88 32 137 -1z m426 -59 c166 -84 246 -356 139
-470 -75 -79 -184 -69 -274 27 -112 119 -150 285 -89 392 42 75 136 96 224 51z"/>
<path d="M13435 9627 c-55 -70 -108 -138 -117 -150 -16 -21 -16 -27 3 -107 30
-125 30 -367 1 -507 -57 -265 -168 -479 -336 -649 -98 -98 -173 -149 -320
-220 -455 -217 -1052 -291 -1651 -203 -407 59 -579 122 -704 254 -98 105 -157
252 -149 371 l3 51 -125 28 c-69 15 -178 42 -242 60 -65 18 -118 29 -118 26 0
-12 110 -193 167 -275 102 -146 205 -269 338 -401 468 -468 1036 -696 1675
-671 517 19 868 153 1155 441 320 319 493 783 536 1435 11 168 6 466 -9 590
l-7 54 -100 -127z"/>
<path d="M5724 8730 c230 -134 463 -335 516 -445 11 -23 20 -57 20 -75 l0 -35
-32 40 c-58 74 -157 162 -220 196 -58 31 -70 34 -149 34 -73 0 -90 -3 -109
-20 -19 -17 -21 -28 -18 -72 10 -120 114 -254 245 -316 62 -29 77 -32 178 -34
l110 -2 28 -33 c43 -51 77 -127 77 -172 0 -46 -30 -103 -72 -136 -74 -58 -216
-94 -332 -84 l-51 4 45 -15 c187 -64 398 -28 469 79 52 79 38 206 -39 355
l-39 75 15 47 c14 43 14 53 0 102 -31 106 -160 258 -302 354 -89 61 -365 193
-402 193 -3 0 24 -18 62 -40z m246 -380 c71 -46 256 -243 244 -261 -9 -16
-100 -10 -165 10 -87 28 -158 79 -196 143 -43 74 -48 103 -22 129 27 27 75 19
139 -21z"/>
<path d="M6659 8753 c-13 -16 -12 -17 4 -4 9 7 17 15 17 17 0 8 -8 3 -21 -13z"/>
<path d="M6709 8713 c-13 -16 -12 -17 4 -4 9 7 17 15 17 17 0 8 -8 3 -21 -13z"/>
<path d="M4873 8025 c0 -8 4 -12 9 -9 5 3 6 10 3 15 -9 13 -12 11 -12 -6z"/>
<path d="M4930 7841 c5 -11 15 -23 21 -27 6 -3 3 5 -6 20 -20 30 -30 35 -15 7z"/>
<path d="M4976 7778 c10 -14 21 -24 23 -22 3 3 -6 15 -18 27 l-24 22 19 -27z"/>
<path d="M5102 7654 c10 -10 20 -16 22 -13 3 3 -5 11 -17 18 -21 13 -21 12 -5
-5z"/>
<path d="M5130 7666 c0 -2 8 -10 18 -17 15 -13 16 -12 3 4 -13 16 -21 21 -21
13z"/>
<path d="M11509 5238 c0 -53 -9 -121 -15 -127 -3 -3 -15 -6 -27 -6 -19 0 -23
-7 -29 -60 -9 -81 -40 -159 -97 -247 -101 -155 -220 -218 -411 -218 -160 0
-301 47 -418 139 -107 85 -246 283 -247 351 -1 19 -2 56 -3 82 l-2 47 -117
-40 c-65 -22 -170 -65 -233 -95 -63 -31 -150 -69 -194 -85 -215 -79 -535 -290
-991 -655 -338 -271 -666 -560 -772 -681 l-56 -64 -23 22 -23 21 -108 -93
c-59 -52 -177 -154 -261 -227 l-152 -133 102 -108 c57 -60 152 -153 212 -207
325 -294 465 -419 496 -443 19 -14 112 -87 205 -162 192 -154 480 -369 492
-368 10 0 266 393 273 418 3 10 29 44 58 77 l53 59 -6 -65 c-11 -126 -35 -493
-32 -496 1 -2 29 10 61 26 32 17 64 30 71 30 13 0 25 103 25 208 l0 55 103 -7
c572 -36 1069 -50 1797 -50 469 -1 767 4 945 13 143 8 278 15 299 15 l40 1 33
-265 c34 -282 85 -762 81 -765 -3 -2 -423 -21 -813 -35 -466 -18 -1081 -30
-1497 -30 -225 0 -408 -2 -408 -5 0 -2 6 -28 13 -57 18 -70 21 -241 6 -318 -6
-34 -22 -77 -35 -96 -13 -19 -24 -46 -24 -60 0 -66 -76 -124 -161 -124 -106 1
-256 57 -382 143 -37 26 -68 47 -70 47 -1 0 -2 -57 -2 -127 0 -117 -2 -133
-26 -184 -33 -69 -81 -116 -136 -131 -37 -11 -43 -16 -43 -39 0 -31 -4 -30
270 -51 222 -17 1119 -17 1340 0 754 58 1433 177 2083 364 l69 19 -6 67 c-3
37 -10 148 -16 247 -6 99 -15 223 -20 275 -6 52 -19 190 -30 305 -12 116 -34
322 -51 459 -17 136 -28 251 -24 254 3 3 22 -10 43 -29 20 -19 49 -45 64 -58
l26 -23 74 99 c40 54 79 104 86 112 7 7 35 46 62 85 26 39 153 213 282 387
128 173 254 344 280 380 176 240 263 361 266 368 4 12 -481 441 -500 441 -4 0
-17 -18 -29 -39 l-21 -39 -327 327 c-479 480 -845 803 -1168 1027 -109 77
-272 174 -290 174 -8 0 -13 -13 -14 -32z m-1296 -377 c74 -126 209 -254 336
-320 124 -64 198 -83 346 -88 152 -6 233 9 329 60 78 41 185 142 238 224 30
47 44 60 50 50 15 -28 21 -233 9 -333 -26 -212 -125 -423 -236 -506 -72 -55
-132 -72 -245 -71 -221 2 -393 82 -566 266 -130 138 -217 309 -259 512 -18 89
-34 235 -25 235 3 0 13 -13 23 -29z m3274 -1317 c161 -140 195 -174 190 -188
-3 -7 -204 -284 -447 -614 l-442 -602 -69 62 c-47 43 -69 69 -69 85 0 13 -6
23 -14 23 -9 0 -15 16 -18 48 l-5 47 385 608 c211 334 388 607 393 607 5 0 48
-34 96 -76z m-5416 -132 c51 -69 15 -39 -65 53 -47 55 -48 57 -14 32 20 -16
56 -54 79 -85z m325 -552 c296 -314 540 -575 542 -580 2 -5 -28 -56 -65 -114
l-68 -106 -135 102 c-279 210 -603 481 -855 715 -256 238 -300 281 -295 285
120 109 323 277 329 274 4 -3 251 -262 547 -576z"/>
</g>
</svg>
